<?xml version="1.0" standalone="no"?>
<!DOCTYPE svg PUBLIC "-//W3C//DTD SVG 20010904//EN" "http://www.w3.org/TR/2001/REC-SVG-20010904/DTD/svg10.dtd">
<svg xmlns="http://www.w3.org/2000/svg" version="1.0" width="1024.000000pt" height="1024.000000pt" viewBox="0 0 1024.000000 1024.000000" preserveAspectRatio="xMidYMid meet">
<metadata>
Created by potrace 1.16, written by Peter Selinger 2001-2019
<meta name="Producer" content="Online-Convert"/></metadata>
<g transform="translate(0.000000,1024.000000) scale(0.100000,-0.100000)" fill="#000000" stroke="none">
<path d="M2443 9892 c-117 -53 -218 -103 -225 -110 -9 -8 -15 -54 -18 -130 l-5 -117 -110 -5 c-60 -3 -116 -9 -122 -13 -18 -11 -18 -318 -1 -335 8 -8 48 -12 114 -12 58 0 106 -4 109 -10 3 -6 9 -209 11 -453 3 -243 10 -466 15 -495 15 -77 73 -185 122 -227 97 -84 226 -120 397 -112 153 7 245 38 324 108 44 38 60 86 51 147 -16 104 -40 124 -161 132 -105 7 -133 21 -169 81 -19 32 -20 55 -23 411 -2 259 0 384 8 398 10 19 20 20 163 20 208 0 197 -9 197 174 0 107 -4 147 -14 162 -13 17 -31 19 -183 24 l-168 5 -5 211 c-5 232 -9 244 -64 243 -17 0 -126 -43 -243 -97z"/>
<path d="M3887 9559 c-138 -18 -288 -83 -394 -171 -237 -197 -354 -596 -279 -950 78 -364 380 -588 791 -588 200 1 333 38 482 137 146 96 245 236 247 352 1 81 -8 84 -236 74 l-181 -8 -47 -60 c-30 -39 -65 -70 -101 -90 -48 -26 -64 -30 -134 -30 -128 1 -224 54 -280 157 -24 44 -29 65 -29 123 l-1 70 495 5 c272 3 502 9 511 13 36 18 44 56 43 191 -2 159 -23 247 -88 374 -124 239 -311 367 -586 401 -95 12 -116 12 -213 0z m240 -381 c23 -10 53 -35 68 -54 37 -48 67 -138 63 -188 l-3 -41 -260 0 -260 0 -3 33 c-8 81 66 200 151 243 80 41 166 44 244 7z"/>
<path d="M9189 9560 c-147 -17 -258 -57 -342 -122 l-37 -30 -6 30 c-4 17 -17 41 -31 54 -21 20 -33 23 -91 20 -71 -2 -180 -26 -223 -48 -15 -7 -32 -28 -38 -45 -8 -22 -11 -254 -11 -765 0 -721 0 -734 20 -754 18 -18 33 -20 148 -20 70 0 178 3 240 7 107 6 115 8 130 32 15 22 18 82 22 546 5 565 5 561 63 624 52 56 164 78 220 43 17 -10 44 -47 65 -87 48 -91 80 -110 182 -110 121 1 208 50 245 138 34 81 28 233 -12 310 -41 81 -129 144 -228 165 -75 16 -230 22 -316 12z"/>
<path d="M1005 9546 c-304 -60 -484 -244 -485 -496 0 -204 113 -350 348 -450 37 -15 128 -47 202 -70 231 -72 295 -111 306 -181 15 -100 -121 -175 -252 -140 -61 16 -90 44 -128 125 -25 52 -42 75 -58 79 -12 4 -103 4 -203 0 -231 -7 -230 -7 -222 -111 15 -200 168 -354 422 -424 69 -19 106 -22 265 -22 174 0 191 2 275 28 182 55 307 150 370 280 96 196 61 394 -95 539 -87 80 -164 119 -393 196 -205 70 -245 89 -281 131 -36 43 -36 107 -1 143 46 46 156 56 225 22 36 -19 60 -48 94 -118 l31 -62 181 0 c156 0 184 3 208 18 40 27 50 61 37 131 -31 175 -182 311 -404 367 -107 27 -341 35 -442 15z"/>
<path d="M4751 9498 c6 -12 107 -189 225 -394 349 -611 420 -750 483 -947 43 -135 61 -249 61 -392 0 -183 -30 -317 -111 -492 l-38 -83 378 0 378 0 26 68 c14 37 94 243 177 457 247 637 313 742 924 1480 133 160 247 298 255 308 13 16 -7 17 -355 17 l-369 0 -197 -298 c-252 -381 -325 -503 -414 -687 -67 -140 -137 -319 -166 -425 l-12 -45 -7 69 c-16 149 -73 366 -141 536 -16 41 -116 249 -221 463 l-191 387 -348 0 -349 0 12 -22z"/>
<path d="M5780 9515 c0 -5 348 -707 354 -712 2 -3 95 148 207 334 111 186 209 348 217 361 l14 22 -396 0 c-218 0 -396 -2 -396 -5z"/>
<path d="M7549 9252 c-415 -420 -539 -565 -718 -832 -141 -211 -237 -412 -372 -775 -61 -165 -124 -335 -140 -377 l-28 -78 949 0 950 0 0 1159 0 1158 -82 6 c-46 4 -131 7 -189 7 l-106 0 -264 -268z"/>
<path d="M5426 6555 c-10 -10 -16 -33 -16 -61 0 -39 -6 -53 -42 -96 l-43 -50 -5 -124 -5 -123 -37 -38 -38 -39 0 -152 0 -152 -40 -44 -40 -43 0 -111 0 -111 -32 6 c-61 11 -127 92 -289 350 -59 96 -76 103 -244 103 -77 0 -156 -5 -175 -10 -19 -5 -63 -35 -97 -65 -33 -30 -66 -55 -72 -55 -5 0 -87 83 -181 184 -194 209 -229 237 -300 244 -66 6 -96 -14 -257 -172 -69 -66 -128 -122 -132 -124 -5 -1 -77 60 -161 138 -116 106 -159 140 -179 140 -21 0 -71 -45 -252 -227 -292 -297 -559 -579 -560 -595 -4 -44 22 -74 51 -58 9 5 183 181 385 390 203 209 371 379 375 378 4 -2 72 -61 150 -133 78 -71 150 -134 160 -139 10 -5 29 -6 42 -3 13 4 95 74 182 157 88 82 168 152 178 156 25 7 99 -48 165 -123 28 -32 96 -107 152 -168 55 -60 101 -116 101 -124 0 -16 -58 -96 -97 -133 -28 -27 -29 -27 -202 -30 l-173 -3 -27 -32 c-14 -17 -54 -83 -88 -146 l-63 -114 -60 -6 c-78 -7 -103 -24 -270 -184 l-129 -124 -42 31 c-53 38 -84 38 -162 -1 -115 -59 -216 -134 -389 -291 -69 -62 -162 -118 -198 -118 -23 0 -40 -20 -40 -46 0 -87 157 -35 310 102 166 149 356 284 402 284 9 0 77 -59 152 -131 105 -101 140 -130 158 -127 18 2 24 10 26 34 3 27 -8 43 -74 113 -65 70 -75 84 -63 95 273 257 271 256 365 256 l73 0 66 -85 c37 -47 75 -90 85 -95 11 -6 105 -10 214 -10 l195 0 30 -37 c17 -21 41 -69 54 -107 24 -77 52 -105 86 -87 11 6 23 20 26 31 15 46 -80 254 -126 277 -17 9 -86 13 -229 13 l-206 0 -37 50 -37 50 250 0 c155 0 259 4 271 10 10 6 37 45 58 88 58 115 46 110 256 113 l179 3 78 -89 c42 -50 77 -92 78 -95 0 -3 -67 -4 -149 -2 -194 4 -181 22 -181 -241 0 -118 4 -206 10 -218 14 -26 66 -26 80 0 6 12 10 92 10 192 l0 172 323 -6 c274 -4 539 -21 664 -42 l31 -6 4 -158 c3 -169 9 -191 54 -191 13 0 28 9 34 19 6 12 10 98 10 210 l0 191 -102 126 c-147 180 -148 181 -155 258 -4 50 -11 69 -24 76 -39 21 -69 -13 -69 -78 l0 -40 -42 4 c-120 13 -118 11 -118 123 0 58 3 67 34 101 l33 37 5 168 5 168 36 31 c36 30 37 33 38 101 1 107 13 184 32 202 15 16 18 15 37 -2 18 -16 20 -30 20 -155 l0 -136 45 -22 45 -22 0 -156 c0 -85 4 -164 10 -174 5 -10 26 -28 45 -40 l35 -22 0 -198 c0 -254 -5 -245 144 -245 l105 0 22 -38 c25 -46 59 -61 118 -53 70 10 71 11 71 165 0 104 4 142 14 157 14 18 15 18 33 1 17 -17 18 -40 15 -337 -2 -226 1 -326 9 -342 11 -20 16 -21 135 -15 l124 6 0 -83 0 -83 -282 -6 c-294 -6 -534 -24 -773 -57 -173 -25 -188 -25 -305 1 -81 17 -143 21 -410 26 -319 5 -455 -1 -669 -33 -339 -50 -561 -169 -561 -300 0 -135 166 -203 707 -288 342 -54 461 -90 524 -157 74 -79 1 -152 -206 -207 -173 -46 -538 -96 -788 -108 -147 -8 -164 -14 -153 -59 4 -17 14 -25 29 -26 102 -7 489 23 688 51 224 33 363 75 460 142 133 91 114 244 -41 323 -73 37 -167 61 -515 130 -384 76 -469 98 -547 137 -102 50 -87 99 49 164 137 65 312 105 543 124 182 15 602 24 695 15 l80 -8 -122 -32 c-310 -82 -438 -165 -419 -269 22 -118 250 -177 926 -241 423 -40 598 -70 707 -120 152 -69 137 -154 -41 -240 -153 -74 -400 -136 -673 -171 -153 -19 -173 -25 -173 -58 0 -46 20 -51 143 -38 254 28 591 113 745 188 295 143 259 340 -80 438 -152 44 -332 69 -798 111 -358 33 -594 81 -642 132 l-21 23 35 33 c104 98 577 209 1168 274 138 15 248 18 665 18 544 -1 767 -15 1092 -70 78 -13 149 -22 157 -19 19 7 26 40 12 58 -6 8 -29 19 -51 25 -55 14 -301 48 -407 57 l-88 7 0 176 0 176 108 108 c59 59 112 107 117 107 6 -1 64 -52 129 -114 l120 -113 4 -184 c2 -102 9 -190 14 -196 15 -18 42 -16 61 5 14 16 17 43 17 169 0 122 3 153 15 163 34 28 17 54 -131 190 -201 186 -217 200 -234 200 -8 0 -83 -69 -166 -154 -113 -116 -153 -163 -156 -185 -2 -17 -2 -34 2 -38 4 -5 5 -75 2 -156 -4 -125 -7 -147 -19 -143 -8 3 -21 6 -29 6 -12 0 -14 53 -14 337 l0 337 -50 87 c-55 97 -53 90 -115 499 -20 129 -41 240 -47 247 -34 42 -46 5 -112 -335 l-64 -331 -61 -77 -61 -77 0 -207 0 -207 -37 -7 c-21 -3 -60 -6 -86 -6 l-49 0 8 310 7 310 -42 59 c-33 48 -41 68 -41 103 0 49 -13 68 -47 68 -27 0 -43 -32 -43 -87 0 -27 -10 -47 -40 -84 l-41 -48 -1 -125 c-1 -69 -5 -126 -8 -126 -4 0 -13 14 -20 30 -21 51 -44 60 -152 60 l-98 0 0 195 0 194 -40 32 -40 32 -1 161 c0 89 -4 169 -8 179 -3 10 -25 28 -46 40 -45 26 -53 51 -54 187 -1 70 -4 78 -36 119 -28 36 -35 52 -35 90 0 79 -37 122 -74 86z m-677 -820 c17 -20 31 -40 31 -46 0 -5 33 -60 73 -122 74 -113 154 -209 188 -228 10 -5 104 -20 208 -33 105 -14 195 -27 201 -31 14 -8 172 -197 168 -200 -2 -2 -46 1 -98 6 -52 5 -192 15 -310 22 l-214 12 -69 85 c-38 47 -91 111 -119 143 l-50 58 -223 -3 -224 -3 -30 -29 c-17 -16 -48 -63 -68 -103 l-38 -74 -275 3 -276 3 49 90 c27 50 54 96 59 103 8 8 52 12 160 12 102 0 159 4 181 14 18 7 95 79 177 166 80 84 159 161 175 171 25 16 51 19 161 19 l132 0 31 -35z m2001 -281 c19 -124 28 -150 86 -242 l34 -52 0 -320 0 -320 -160 0 -160 0 0 208 c0 114 -3 257 -6 317 l-7 110 63 79 62 78 28 161 c16 89 30 164 31 167 1 3 4 -11 6 -30 2 -19 12 -90 23 -156z"/>
<path d="M6685 5046 c-22 -33 -31 -121 -15 -141 17 -20 76 -20 84 1 13 33 6 132 -10 148 -22 22 -41 20 -59 -8z"/>
<path d="M4820 4882 c-32 -26 -41 -123 -15 -152 21 -23 48 -26 63 -7 5 6 13 38 17 70 5 45 3 63 -9 83 -20 29 -27 30 -56 6z"/>
<path d="M5076 4868 c-22 -30 -22 -131 0 -152 41 -42 74 -6 74 83 0 39 -5 72 -12 79 -19 19 -45 14 -62 -10z"/>
<path d="M5296 4868 c-19 -27 -22 -138 -4 -156 20 -20 66 -15 73 8 9 29 10 144 1 158 -12 20 -54 14 -70 -10z"/>
<path d="M2120 2705 l0 -425 70 0 70 0 0 90 c0 89 0 91 35 128 22 24 37 33 42 26 5 -6 46 -63 93 -127 l85 -117 87 0 c49 0 88 3 88 8 0 4 -57 83 -125 176 -69 92 -125 172 -125 176 0 4 49 54 110 110 60 56 107 106 104 111 -3 5 -39 9 -80 9 l-76 0 -119 -116 -119 -117 -2 244 -3 244 -67 3 -68 3 0 -426z"/>
<path d="M1837 3114 c-4 -4 -7 -134 -7 -289 0 -184 -4 -294 -11 -316 -15 -43 -55 -88 -96 -105 -75 -32 -189 -5 -231 53 -35 50 -42 107 -42 386 l0 267 -76 0 -75 0 3 -312 c3 -293 4 -316 24 -358 42 -91 101 -137 209 -166 104 -28 239 -9 319 44 53 36 102 109 115 175 7 32 10 160 9 337 l-3 285 -65 3 c-36 2 -69 0 -73 -4z"/>
<path d="M4024 3107 c-3 -8 -4 -36 -2 -63 l3 -49 75 0 75 0 0 60 0 60 -73 3 c-55 2 -74 0 -78 -11z"/>
<path d="M5052 3058 l3 -63 75 0 75 0 0 60 0 60 -78 3 -78 3 3 -63z"/>
<path d="M6970 3111 c-25 -7 -25 -9 -28 -124 l-3 -117 -60 0 c-68 0 -109 -14 -157 -55 -107 -90 -125 -326 -33 -452 45 -62 101 -84 231 -91 59 -2 120 -2 134 2 l26 6 0 183 c0 205 7 233 69 274 38 26 103 31 146 11 52 -24 59 -55 63 -270 l4 -198 69 0 69 0 0 203 c0 219 -6 260 -42 313 -68 100 -259 112 -355 22 l-23 -21 0 161 0 162 -42 -1 c-24 -1 -54 -4 -68 -8z m-30 -542 l0 -202 -41 6 c-22 3 -50 14 -61 24 -61 54 -80 204 -36 292 24 48 71 81 116 81 l22 0 0 -201z"/>
<path d="M3481 2878 c-103 -16 -172 -73 -175 -144 l-1 -37 65 2 c39 1 67 7 69 14 2 7 17 24 32 39 23 24 36 28 84 28 49 0 60 -4 85 -28 24 -25 50 -95 39 -107 -2 -2 -64 -8 -136 -13 -167 -12 -229 -37 -262 -106 -51 -104 -4 -221 105 -256 49 -16 169 -8 214 15 19 9 47 29 63 43 l27 26 0 -37 0 -37 65 0 65 0 0 222 c0 205 -2 225 -21 266 -12 24 -37 53 -58 67 -62 40 -169 58 -260 43z m186 -380 c-10 -78 -71 -133 -147 -133 -87 0 -129 70 -77 130 27 31 68 43 161 44 l69 1 -6 -42z"/>
<path d="M5491 2875 c-125 -35 -186 -127 -146 -221 32 -77 73 -102 231 -139 59 -14 113 -30 121 -36 21 -18 16 -73 -8 -95 -16 -15 -36 -19 -89 -19 -58 0 -72 4 -93 23 -14 13 -28 35 -31 48 -6 24 -9 25 -84 22 -76 -3 -77 -3 -74 -28 2 -14 15 -45 29 -69 19 -33 38 -49 82 -69 49 -23 69 -26 161 -27 97 0 110 2 165 30 49 24 64 38 83 75 42 85 21 176 -53 217 -22 12 -74 30 -115 39 -128 27 -150 34 -171 55 -25 25 -24 45 6 74 20 21 34 25 81 25 52 0 59 -3 90 -35 31 -33 36 -35 100 -35 l67 0 -7 31 c-22 109 -194 176 -345 134z"/>
<path d="M2995 2866 c-16 -7 -39 -23 -50 -36 l-20 -22 -5 28 c-5 28 -8 29 -68 32 l-62 3 0 -296 0 -295 70 0 70 0 0 183 c0 153 3 187 18 216 28 56 63 76 135 75 34 0 65 5 69 11 12 16 9 90 -4 103 -16 16 -115 15 -153 -2z"/>
<path d="M4570 2864 c-19 -8 -49 -26 -66 -39 l-33 -25 -3 32 c-3 33 -3 33 -65 36 -58 3 -63 1 -68 -20 -3 -13 -4 -144 -3 -293 l3 -270 73 -3 72 -3 0 187 c0 209 7 238 65 274 40 25 121 27 154 4 44 -31 51 -69 51 -274 l0 -190 76 0 76 0 -4 223 c-3 146 -9 232 -17 252 -18 43 -59 85 -106 106 -49 23 -155 25 -205 3z"/>
<path d="M6157 2866 c-137 -51 -206 -167 -195 -327 7 -86 44 -166 99 -210 151 -120 412 -69 460 90 18 61 10 71 -61 71 l-61 0 -19 -44 c-24 -56 -53 -76 -111 -76 -55 0 -103 29 -133 80 -30 50 -30 179 0 234 29 57 66 81 123 81 56 0 99 -25 114 -66 11 -28 14 -29 79 -29 37 0 70 4 73 10 9 15 -13 84 -36 114 -39 49 -114 79 -209 83 -56 2 -98 -1 -123 -11z"/>
<path d="M7820 2871 c-73 -24 -137 -77 -173 -145 -19 -35 -22 -57 -22 -156 0 -105 2 -119 27 -165 31 -59 57 -84 118 -116 39 -20 59 -24 150 -24 92 0 111 3 154 25 50 26 100 85 112 133 l6 27 -71 0 c-61 0 -72 -3 -81 -21 -32 -58 -139 -78 -201 -36 -38 25 -68 78 -69 119 l0 28 218 2 217 3 -2 57 c-4 117 -45 195 -130 244 -41 24 -59 29 -138 31 -49 1 -101 -1 -115 -6z m158 -105 c40 -21 62 -49 69 -90 l6 -36 -142 0 -142 0 6 23 c29 95 124 144 203 103z"/>
<path d="M4027 2863 c-4 -3 -7 -136 -7 -295 l0 -288 75 0 75 0 0 295 0 295 -68 0 c-38 0 -72 -3 -75 -7z"/>
<path d="M5055 2857 c-3 -7 -4 -138 -3 -292 l3 -280 73 -3 72 -3 0 296 0 295 -70 0 c-48 0 -72 -4 -75 -13z"/>
<path d="M1397 2149 c-125 -18 -226 -109 -266 -238 -73 -239 5 -472 187 -554 65 -30 240 -36 332 -12 99 25 159 54 165 79 3 11 4 91 3 176 l-3 155 -167 3 -168 2 0 -60 0 -60 90 0 90 0 0 -80 c0 -78 -1 -81 -27 -91 -16 -6 -67 -13 -114 -16 -99 -6 -137 6 -194 65 -43 45 -65 105 -72 203 -8 111 20 201 81 257 50 46 87 57 176 50 72 -5 107 -27 135 -86 l19 -42 68 0 c65 0 68 1 68 24 0 61 -41 132 -102 176 -58 43 -195 65 -301 49z"/>
<path d="M8182 2149 c-77 -19 -132 -101 -132 -198 l0 -31 -75 0 -75 0 0 -55 0 -55 75 0 75 0 2 -232 3 -233 75 0 75 0 3 233 2 232 80 0 80 0 0 50 0 50 -86 0 c-85 0 -86 0 -80 23 3 12 6 32 6 45 0 42 33 62 105 62 l65 0 0 49 c0 28 -4 53 -10 56 -19 12 -145 14 -188 4z"/>
<path d="M6573 2143 l-23 -4 0 -400 0 -400 68 3 67 3 5 190 c3 130 9 197 18 213 32 56 139 82 191 46 44 -31 51 -69 51 -269 l0 -186 68 3 67 3 0 220 c0 210 -1 222 -23 262 -58 109 -221 137 -329 57 -17 -13 -34 -24 -37 -24 -3 0 -7 64 -8 143 l-3 142 -45 1 c-25 1 -55 0 -67 -3z"/>
<path d="M4354 2127 c-3 -8 -4 -36 -2 -63 l3 -49 67 -3 c64 -3 68 -2 73 21 4 13 5 41 3 63 l-3 39 -68 3 c-51 2 -69 -1 -73 -11z"/>
<path d="M8570 1996 l0 -85 -52 -3 -53 -3 0 -45 0 -45 52 -3 51 -3 4 -187 c3 -167 5 -191 24 -222 28 -48 56 -60 142 -60 97 0 112 9 112 65 l0 45 -48 0 c-81 0 -86 12 -90 201 l-3 158 68 3 68 3 3 48 3 47 -70 0 -71 0 0 85 0 85 -70 0 -70 0 0 -84z"/>
<path d="M2101 1909 c-100 -40 -165 -130 -177 -246 -14 -134 39 -245 141 -298 52 -27 68 -30 144 -29 140 1 222 53 255 162 7 21 5 22 -58 22 -58 0 -67 -3 -81 -24 -21 -31 -66 -49 -121 -48 -71 1 -119 43 -131 116 l-6 36 208 0 208 0 -5 78 c-7 115 -44 179 -133 225 -60 31 -174 33 -244 6z m178 -94 c28 -14 61 -68 61 -99 0 -14 -18 -16 -135 -16 -148 0 -148 0 -117 58 35 66 124 92 191 57z"/>
<path d="M2830 1918 c-19 -5 -50 -21 -68 -34 -27 -21 -33 -23 -37 -10 -3 9 -7 23 -10 32 -4 12 -17 14 -57 12 l-53 -3 -3 -287 -2 -288 64 0 64 0 4 188 c4 200 11 232 60 266 30 21 107 20 134 -2 44 -35 49 -58 52 -260 l4 -193 65 3 66 3 1 185 c2 201 9 232 61 266 29 19 105 21 132 3 44 -27 48 -46 53 -254 l5 -200 65 0 65 0 3 203 c1 121 -2 219 -8 243 -38 141 -246 187 -369 82 l-39 -33 -34 34 c-51 51 -134 68 -218 44z"/>
<path d="M3822 1913 c-69 -21 -133 -78 -163 -145 -26 -61 -32 -184 -11 -255 18 -61 70 -123 127 -152 44 -23 62 -26 150 -26 110 0 153 15 207 72 29 31 61 97 51 107 -4 3 -32 6 -63 6 -54 0 -60 -3 -98 -40 -36 -37 -44 -40 -93 -40 -35 0 -65 7 -85 19 -34 21 -64 75 -64 115 l0 26 211 0 212 0 -6 74 c-8 112 -52 187 -132 229 -53 27 -171 32 -243 10z m176 -103 c32 -20 52 -54 52 -91 0 -18 -8 -19 -135 -19 -88 0 -135 4 -135 10 0 32 55 100 90 113 34 12 96 6 128 -13z"/>
<path d="M4870 1915 c-19 -9 -49 -27 -67 -41 l-33 -25 0 30 c0 35 -21 45 -86 39 l-39 -3 0 -285 0 -285 65 0 65 0 5 195 c5 210 10 229 60 255 38 19 109 19 138 -1 42 -29 47 -51 52 -254 l5 -195 68 -3 67 -3 -1 218 c-1 263 -9 294 -92 343 -50 30 -157 37 -207 15z"/>
<path d="M5440 1921 c-76 -24 -122 -65 -141 -128 -10 -36 -9 -49 5 -88 28 -71 86 -105 231 -135 88 -18 115 -34 115 -70 0 -49 -30 -70 -101 -70 -73 0 -96 11 -115 56 l-14 34 -70 0 c-38 0 -71 -3 -73 -8 -11 -16 24 -89 57 -119 89 -82 307 -84 400 -3 45 40 59 78 54 145 -7 88 -47 117 -208 154 -52 12 -105 28 -117 37 -25 16 -30 51 -10 78 15 21 82 37 117 29 30 -7 70 -41 70 -60 0 -10 19 -13 71 -13 l72 0 -7 33 c-9 48 -36 79 -96 110 -46 23 -65 27 -134 26 -45 0 -92 -4 -106 -8z"/>
<path d="M6056 1910 c-110 -44 -170 -141 -170 -275 0 -124 35 -203 115 -257 58 -39 111 -51 196 -46 124 8 214 75 230 171 l6 37 -66 0 -65 0 -12 -35 c-16 -49 -53 -75 -108 -75 -97 0 -152 70 -152 195 0 125 51 195 140 195 55 0 90 -23 110 -70 12 -29 14 -30 81 -30 66 0 69 1 69 24 0 101 -102 177 -245 183 -62 3 -91 -1 -129 -17z"/>
<path d="M7389 1917 c-79 -30 -129 -88 -129 -151 0 -25 2 -26 65 -26 63 0 65 1 81 33 24 46 42 56 102 57 46 0 58 -4 83 -29 16 -16 29 -38 29 -49 0 -11 2 -27 5 -35 5 -11 -14 -15 -102 -20 -60 -3 -132 -14 -162 -23 -101 -34 -153 -113 -132 -205 13 -57 38 -89 92 -117 37 -20 55 -23 119 -19 77 4 125 21 168 60 l22 20 0 -24 c0 -43 12 -50 76 -47 l59 3 3 199 c3 263 -11 307 -118 362 -46 23 -209 30 -261 11z m231 -354 c-15 -83 -58 -125 -134 -131 -48 -4 -57 -1 -80 21 -40 40 -32 102 17 128 20 11 183 29 198 22 4 -1 3 -20 -1 -40z"/>
<path d="M4355 1907 c-3 -7 -4 -136 -3 -287 l3 -275 67 -3 67 -3 3 268 c2 147 2 278 0 291 -3 20 -9 22 -68 22 -43 0 -66 -4 -69 -13z"/>
<path d="M3096 1198 c-8 -32 -7 -81 3 -96 5 -9 27 -12 72 -10 l64 3 3 63 3 62 -69 0 c-64 0 -70 -2 -76 -22z"/>
<path d="M4450 1205 c-130 -41 -195 -177 -139 -293 28 -56 85 -97 171 -122 37 -11 99 -29 138 -40 79 -23 110 -50 110 -95 0 -56 -60 -95 -144 -95 -89 0 -149 33 -161 91 -7 29 -7 29 -82 29 l-76 0 7 -41 c21 -130 132 -209 296 -209 188 0 300 91 300 242 0 118 -60 175 -230 218 -149 38 -200 69 -200 122 0 64 46 98 133 98 67 0 117 -30 132 -78 l9 -32 73 0 73 0 0 30 c0 73 -68 149 -156 176 -59 18 -195 17 -254 -1z"/>
<path d="M5078 1143 l-38 -4 0 -70 0 -69 -50 0 -50 0 0 -50 0 -50 49 0 49 0 4 -182 c3 -152 6 -189 21 -216 26 -48 75 -66 161 -59 76 5 88 14 84 67 -3 34 -4 35 -40 32 -29 -3 -43 2 -63 22 -25 25 -25 28 -25 180 l0 155 63 3 62 3 3 48 3 47 -65 0 -66 0 0 75 0 75 -32 -2 c-18 -1 -50 -3 -70 -5z"/>
<path d="M3663 1009 c-46 -9 -117 -42 -130 -61 -5 -9 -9 -3 -13 17 -5 29 -6 30 -65 30 l-60 0 0 -275 0 -275 65 0 65 0 5 187 c5 170 7 189 26 215 31 41 85 59 134 44 69 -20 74 -38 80 -256 l5 -190 63 -2 62 -1 0 221 c0 211 -1 224 -23 261 -37 66 -124 100 -214 85z"/>
<path d="M5572 1005 c-135 -42 -215 -174 -198 -325 8 -71 48 -152 92 -189 126 -103 366 -69 424 62 10 22 16 45 14 49 -3 4 -30 8 -61 8 -49 0 -60 -4 -94 -35 -33 -30 -46 -35 -87 -35 -79 0 -142 57 -142 130 0 19 6 20 200 20 l200 0 0 54 c0 197 -162 319 -348 261z m149 -111 c27 -14 59 -65 59 -94 0 -6 -47 -10 -130 -10 -84 0 -130 4 -130 10 0 21 30 69 56 89 32 26 101 28 145 5z"/>
<path d="M6825 1006 c-16 -7 -39 -23 -50 -36 l-20 -22 -5 24 c-5 21 -11 23 -65 23 l-60 0 -3 -272 -2 -273 35 -1 c19 -1 50 -2 68 -3 l32 -1 5 180 c5 190 9 207 56 244 21 16 41 21 90 21 l64 0 0 55 c0 50 -2 56 -26 65 -35 14 -83 12 -119 -4z"/>
<path d="M3100 725 l0 -275 23 -5 c13 -4 43 -5 68 -3 l44 3 3 278 2 277 -70 0 -70 0 0 -275z"/>
<path d="M5970 991 c0 -8 119 -300 211 -519 22 -53 22 -55 5 -87 -21 -39 -52 -55 -107 -55 l-40 0 3 -52 3 -53 67 -3 c116 -5 155 33 223 221 21 56 75 200 121 321 46 120 84 223 84 227 0 5 -29 9 -64 9 l-64 0 -61 -171 c-34 -94 -64 -182 -67 -195 -3 -13 -9 -24 -13 -24 -7 0 -7 -1 -93 228 l-61 162 -73 0 c-41 0 -74 -4 -74 -9z"/>
</g>
</svg>
