<?xml version="1.0" standalone="no"?>
<!DOCTYPE svg PUBLIC "-//W3C//DTD SVG 20010904//EN" "http://www.w3.org/TR/2001/REC-SVG-20010904/DTD/svg10.dtd">
<svg xmlns="http://www.w3.org/2000/svg" version="1.0" width="1024.000000pt" height="1024.000000pt" viewBox="0 0 1024.000000 1024.000000" preserveAspectRatio="xMidYMid meet">
<metadata>
Created by potrace 1.16, written by Peter Selinger 2001-2019
<meta name="Producer" content="Online-Convert"/></metadata>
<g transform="translate(0.000000,1024.000000) scale(0.100000,-0.100000)" fill="#000000" stroke="none">
<path d="M5350 8565 c-7 -9 -15 -39 -18 -68 -4 -41 -12 -60 -38 -90 l-34 -37 0 -115 0 -114 -43 -49 c-40 -45 -44 -55 -50 -115 -7 -77 -15 -94 -68 -159 -43 -52 -49 -82 -19 -98 18 -10 20 -21 20 -119 0 -60 -3 -123 -6 -140 l-6 -31 -85 0 c-131 0 -145 10 -248 184 -47 79 -85 148 -85 153 0 5 -8 17 -18 26 -15 14 -42 17 -161 17 l-141 0 -44 -40 c-24 -22 -48 -40 -53 -40 -5 0 -120 108 -256 240 -190 186 -252 240 -271 240 -30 0 -78 -41 -282 -241 -78 -77 -145 -139 -150 -139 -5 0 -81 72 -169 160 -89 88 -169 160 -178 160 -40 0 -84 -41 -364 -339 -164 -174 -343 -363 -399 -421 -56 -58 -104 -112 -106 -120 -8 -24 11 -50 36 -50 18 0 92 72 302 293 153 160 332 347 398 415 l120 122 166 -165 c131 -130 172 -165 193 -165 20 0 57 29 154 121 70 67 161 150 201 186 l72 65 96 -88 c52 -49 150 -140 217 -202 71 -65 134 -115 150 -119 15 -3 27 -7 27 -9 0 -2 -19 -28 -42 -59 l-42 -56 -85 2 c-125 4 -369 -21 -393 -40 -11 -10 -33 -67 -58 -151 -21 -74 -47 -160 -58 -190 l-19 -55 -95 -3 -96 -3 -137 -162 c-76 -89 -146 -165 -155 -169 -10 -3 -61 -11 -113 -16 -91 -9 -98 -11 -144 -49 -80 -66 -94 -73 -147 -73 -49 0 -50 -1 -151 -100 -93 -92 -108 -102 -180 -129 -86 -31 -107 -50 -89 -78 16 -27 47 -27 137 -3 78 21 84 25 181 116 88 83 105 94 136 94 36 0 64 16 171 93 42 31 55 34 138 40 51 4 100 11 110 16 10 6 70 72 134 148 170 203 147 185 231 178 54 -5 78 -12 101 -31 17 -13 45 -37 64 -52 l34 -27 256 -5 256 -5 30 -120 c17 -66 34 -126 39 -134 22 -35 129 -55 140 -25 12 31 -5 65 -35 71 -32 6 -30 3 -69 170 -30 129 -36 133 -196 133 -68 0 -124 3 -124 6 0 3 12 23 28 45 l27 39 191 0 191 0 92 -92 92 -93 -3 -195 c-2 -107 1 -205 5 -217 11 -30 45 -39 66 -19 13 14 16 47 19 205 l3 188 181 6 c100 4 311 7 470 7 l288 0 0 -117 c0 -125 11 -165 45 -171 37 -8 45 23 45 178 0 81 -5 160 -10 176 -8 24 -39 46 -148 111 -185 110 -176 106 -267 108 -89 2 -101 7 -236 91 l-86 54 -240 0 -239 0 -30 -30 c-17 -16 -54 -45 -83 -65 l-53 -35 -158 0 c-87 0 -165 -3 -174 -6 -9 -3 -45 -43 -80 -88 l-64 -82 -69 4 c-56 4 -76 10 -110 35 -24 17 -43 32 -43 34 0 2 6 14 14 26 8 12 30 84 50 159 19 75 42 148 51 162 l17 26 208 0 c115 0 220 4 233 9 13 5 47 41 75 80 29 39 75 94 105 123 l53 53 86 3 87 3 69 -103 c38 -57 81 -127 97 -156 51 -94 117 -122 291 -122 155 0 149 -10 150 231 1 152 4 193 17 212 26 40 46 95 57 160 8 44 20 71 40 92 43 46 47 62 55 182 4 62 13 120 20 129 11 16 14 16 38 -2 26 -19 26 -22 27 -131 0 -129 7 -154 49 -179 22 -13 31 -26 31 -44 0 -48 30 -145 61 -194 l30 -49 -1 -246 c-2 -316 -1 -323 9 -340 8 -12 40 -14 167 -12 96 1 164 7 172 13 10 9 11 -8 6 -94 -8 -132 4 -178 46 -178 36 0 40 12 40 129 0 63 6 117 17 152 l17 54 18 -115 c11 -66 25 -121 34 -130 14 -15 114 -18 155 -5 14 5 18 -9 24 -99 7 -113 17 -133 58 -122 21 5 25 14 31 58 9 79 7 168 -5 251 l-11 74 46 85 c75 138 96 213 103 361 3 70 9 127 13 127 4 0 10 -42 14 -93 10 -141 30 -218 88 -341 l53 -111 -3 -165 c-3 -192 3 -224 41 -228 l27 -3 0 -130 c0 -73 5 -139 11 -150 10 -20 8 -20 -98 -14 -204 13 -676 -18 -1233 -81 -192 -21 -350 -34 -405 -32 -49 1 -220 2 -380 1 -500 -2 -868 -59 -1051 -164 -103 -59 -144 -107 -144 -169 0 -71 50 -118 202 -190 134 -63 222 -85 704 -174 283 -53 420 -103 455 -167 16 -30 -18 -62 -116 -110 -100 -49 -231 -83 -449 -114 -228 -32 -370 -44 -556 -46 -85 -1 -165 -5 -177 -10 -28 -10 -32 -63 -7 -73 30 -12 327 -6 498 9 391 36 647 91 782 170 52 30 114 98 116 128 5 74 -17 109 -105 167 -83 54 -208 93 -439 135 -488 90 -570 111 -706 178 -47 23 -94 54 -105 69 -20 27 -20 28 -1 49 35 41 137 99 213 123 87 28 266 59 461 80 150 17 572 41 592 33 7 -2 -18 -14 -57 -25 -93 -28 -223 -92 -268 -132 -58 -51 -68 -119 -24 -168 74 -81 271 -139 652 -192 460 -64 574 -81 698 -106 291 -57 472 -133 451 -187 -8 -23 -86 -78 -159 -114 -166 -83 -483 -173 -770 -218 -146 -22 -154 -25 -166 -46 -8 -15 -7 -24 2 -36 16 -18 79 -13 279 23 570 104 943 284 896 432 -12 36 -69 84 -141 117 -147 68 -397 122 -878 190 -598 85 -671 102 -794 182 -35 23 -15 45 84 96 204 105 488 171 978 227 718 82 1236 85 1812 10 149 -20 182 -19 184 4 3 34 -3 346 -7 371 -4 24 -1 32 18 40 14 6 24 20 26 36 2 21 -22 51 -139 172 -161 167 -259 247 -304 247 -25 0 -56 -28 -216 -192 l-188 -193 -3 185 -3 185 -57 118 c-56 115 -78 190 -93 317 -41 346 -55 396 -106 374 -31 -14 -56 -109 -69 -264 -24 -273 -42 -339 -132 -481 -49 -77 -57 -113 -39 -162 9 -23 8 -25 -42 -30 -28 -4 -52 -5 -53 -4 -2 1 -12 56 -23 121 -22 130 -74 282 -102 296 -36 20 -59 -8 -59 -73 0 -30 -29 -177 -37 -190 -3 -4 -12 -2 -20 5 -11 8 -60 15 -142 18 l-126 5 0 275 0 275 -33 53 c-27 41 -36 68 -43 129 -10 79 -18 94 -72 128 -13 8 -17 36 -21 139 l-5 129 -35 29 c-30 24 -36 36 -41 86 -10 81 -51 118 -85 77z m-375 -1392 c39 -19 77 -41 85 -48 34 -29 70 -38 165 -45 98 -6 102 -8 177 -56 43 -27 78 -51 78 -54 0 -3 -188 -7 -418 -8 l-417 -4 -105 107 c-83 84 -102 108 -90 115 8 5 24 16 35 25 17 13 46 15 220 9 l200 -6 70 -35z m2278 -102 c29 -21 96 -84 150 -139 81 -84 97 -106 98 -134 1 -18 4 -113 8 -211 4 -115 3 -177 -4 -177 -5 0 -78 9 -160 20 -83 10 -227 24 -320 31 l-170 12 3 141 c2 77 7 146 11 153 9 16 321 343 327 343 3 0 28 -17 57 -39z"/>
<path d="M5380 7680 c-11 -7 -16 -34 -18 -104 -4 -85 -2 -95 16 -105 47 -25 72 46 55 159 -8 56 -23 70 -53 50z"/>
<path d="M4822 6798 c-8 -8 -12 -47 -12 -108 0 -83 3 -99 19 -114 11 -10 28 -16 38 -14 16 3 18 16 21 99 1 53 -2 108 -7 122 -11 29 -39 35 -59 15z"/>
<path d="M5316 6802 c-12 -19 -10 -198 2 -219 14 -25 41 -30 60 -11 14 14 5 205 -11 226 -11 14 -43 16 -51 4z"/>
<path d="M5072 6758 c-13 -13 -17 -143 -6 -172 11 -28 41 -38 58 -20 19 18 23 153 6 185 -12 21 -40 25 -58 7z"/>
<path d="M2392 4328 l3 -483 75 0 75 0 5 156 5 157 107 -122 c59 -66 124 -138 144 -158 l35 -38 89 0 c49 0 92 5 95 10 6 10 -32 55 -227 263 l-108 114 137 135 c162 162 164 168 41 167 l-83 0 -115 -126 -115 -126 -3 266 -2 267 -80 0 -80 0 2 -482z"/>
<path d="M4339 4781 c-51 -52 -36 -133 30 -161 102 -42 186 75 115 159 -22 26 -33 31 -71 31 -36 0 -50 -6 -74 -29z"/>
<path d="M5471 4784 c-27 -22 -31 -32 -31 -74 0 -42 4 -52 31 -74 66 -56 169 -11 169 75 0 28 -27 77 -49 89 -35 18 -87 12 -120 -16z"/>
<path d="M7170 4325 l0 -486 78 3 77 3 5 225 c5 245 11 271 67 307 36 24 130 24 166 0 57 -37 62 -61 65 -310 l3 -228 77 3 77 3 3 224 c1 123 -2 249 -8 280 -20 112 -98 179 -216 189 -85 6 -147 -12 -195 -58 l-39 -37 0 184 0 183 -80 0 -80 0 0 -485z"/>
<path d="M1464 4766 c-3 -9 -4 -165 -2 -348 4 -319 5 -335 27 -392 30 -76 90 -136 167 -167 50 -20 77 -24 174 -24 134 0 188 15 265 73 37 28 59 56 85 107 l35 70 0 345 0 345 -80 0 -80 0 -5 -330 c-4 -288 -7 -334 -22 -362 -38 -68 -104 -97 -211 -91 -55 2 -80 9 -105 26 -66 47 -66 51 -72 422 l-5 335 -83 3 c-66 2 -83 0 -88 -12z"/>
<path d="M5972 4539 c-69 -12 -125 -41 -155 -81 -31 -42 -39 -68 -39 -128 1 -111 72 -172 250 -215 76 -18 102 -39 102 -82 0 -75 -146 -99 -210 -35 -15 15 -29 33 -31 40 -4 11 -15 11 -63 -2 -32 -8 -63 -19 -68 -24 -14 -14 26 -87 65 -116 60 -46 105 -59 202 -60 97 -1 163 20 213 67 52 48 70 126 47 203 -24 80 -75 118 -212 155 -126 35 -150 53 -137 105 8 32 52 54 109 54 37 0 52 -5 74 -28 15 -15 30 -33 32 -41 4 -12 13 -11 54 3 73 24 77 28 66 58 -37 98 -161 150 -299 127z"/>
<path d="M3791 4530 c-24 -5 -63 -19 -87 -30 -44 -22 -104 -81 -104 -103 0 -7 25 -27 56 -44 l55 -33 34 34 c42 42 93 60 152 53 61 -7 94 -40 100 -101 l6 -46 -59 0 c-144 0 -271 -42 -319 -104 -61 -79 -54 -197 15 -266 42 -42 95 -60 179 -60 69 0 111 14 158 54 l32 27 9 -33 c8 -33 9 -33 75 -36 l67 -3 0 253 c0 139 -4 269 -10 288 -14 50 -62 104 -115 129 -53 25 -175 35 -244 21z m209 -422 c0 -111 -84 -176 -189 -148 -30 8 -45 19 -57 41 -43 84 43 157 189 158 l57 1 0 -52z"/>
<path d="M4937 4526 c-20 -7 -53 -26 -72 -40 -32 -25 -35 -26 -35 -7 0 45 -9 51 -81 51 l-69 0 0 -345 0 -346 78 3 77 3 5 225 c5 235 7 245 54 289 34 32 119 41 164 17 63 -33 66 -46 72 -301 l5 -230 75 0 75 0 3 235 c2 146 -1 252 -8 280 -27 111 -105 171 -229 177 -49 2 -90 -2 -114 -11z"/>
<path d="M6625 4527 c-97 -33 -161 -88 -204 -177 -23 -49 -26 -67 -26 -165 0 -100 3 -116 29 -173 32 -70 86 -124 155 -156 38 -17 65 -21 151 -21 118 0 165 15 234 75 31 27 76 95 76 114 0 3 -31 15 -69 27 l-69 22 -31 -35 c-41 -47 -78 -61 -149 -56 -108 8 -168 84 -166 209 2 121 59 189 164 197 72 5 111 -9 148 -54 l27 -33 67 18 c37 9 70 20 73 23 10 10 -31 81 -67 115 -53 51 -120 75 -218 79 -53 3 -100 -1 -125 -9z"/>
<path d="M8140 4526 c-134 -36 -220 -148 -236 -308 -17 -172 61 -315 200 -367 79 -29 203 -29 283 0 54 21 153 103 153 128 0 6 -27 24 -60 41 l-61 31 -32 -35 c-52 -55 -140 -71 -212 -37 -65 30 -105 86 -105 147 l0 24 245 0 c201 0 247 3 251 14 11 28 -16 168 -43 223 -61 124 -222 183 -383 139z m180 -134 c37 -18 80 -74 80 -103 0 -18 -11 -19 -160 -19 -149 0 -160 1 -160 19 0 29 43 85 80 103 19 10 55 18 80 18 25 0 61 -8 80 -18z"/>
<path d="M3122 4188 l3 -343 75 0 75 0 5 217 c5 199 7 219 26 244 39 53 68 67 141 68 l68 1 0 75 0 75 -50 3 c-66 5 -123 -13 -161 -50 l-31 -29 -7 40 -6 41 -70 0 -70 0 2 -342z"/>
<path d="M4335 4518 c-3 -7 -4 -162 -3 -343 l3 -330 80 0 80 0 0 340 0 340 -78 3 c-56 2 -79 -1 -82 -10z"/>
<path d="M5462 4188 l3 -343 75 0 75 0 0 340 0 340 -78 3 -77 3 2 -343z"/>
<path d="M8575 3621 c-80 -36 -115 -103 -115 -218 l0 -63 -65 0 -65 0 0 -65 0 -65 65 0 65 0 2 -272 3 -273 80 0 80 0 0 273 0 272 83 0 82 0 0 65 0 65 -86 0 c-74 0 -85 2 -80 16 3 9 6 36 6 60 0 63 24 84 95 84 l55 0 1 33 c0 17 3 44 5 60 4 22 0 29 -21 37 -43 16 -146 12 -190 -9z"/>
<path d="M6924 3616 c-2 -6 -3 -222 -2 -481 l3 -470 80 0 80 0 5 230 c4 198 7 235 23 258 28 43 62 60 122 60 60 0 94 -17 122 -60 16 -23 19 -60 23 -258 l5 -230 78 -3 78 -3 -3 268 c-3 288 -5 299 -62 361 -80 89 -260 95 -347 12 -21 -20 -39 -34 -39 -31 -1 3 -1 78 0 167 0 88 -2 168 -6 177 -5 14 -19 17 -81 16 -45 -1 -76 -6 -79 -13z"/>
<path d="M4471 3606 c-13 -7 -30 -24 -37 -37 -55 -100 76 -200 157 -120 83 83 -17 214 -120 157z"/>
<path d="M1078 3591 c-88 -29 -152 -75 -198 -143 -61 -91 -84 -179 -84 -318 0 -174 40 -286 136 -376 91 -85 225 -122 379 -104 158 18 260 85 326 214 23 45 27 66 31 179 l5 127 -194 -2 c-178 -3 -194 -4 -193 -20 1 -10 2 -43 3 -73 l1 -55 111 0 111 0 -7 -37 c-22 -119 -136 -192 -280 -181 -99 8 -168 58 -216 154 -22 44 -24 61 -24 179 0 117 2 134 24 175 49 94 107 131 216 138 101 6 150 -10 210 -70 l49 -49 36 21 c19 11 50 28 68 37 17 9 32 24 32 32 0 9 -17 38 -38 66 -43 57 -112 96 -199 114 -87 17 -238 13 -305 -8z"/>
<path d="M9008 3553 l-58 -4 0 -104 0 -104 -67 -3 -68 -3 -3 -39 c-2 -22 -1 -50 2 -63 6 -21 12 -23 71 -23 l65 0 0 -206 c-1 -191 0 -208 21 -250 28 -58 80 -93 155 -103 32 -5 65 -7 73 -5 9 2 33 6 54 9 l37 6 0 70 0 71 -63 -7 c-54 -6 -66 -4 -87 13 -25 20 -25 22 -28 211 l-3 190 88 3 88 3 3 63 3 62 -90 0 -90 0 -3 108 c-3 121 6 112 -100 105z"/>
<path d="M2017 3350 c-96 -25 -173 -88 -216 -179 -24 -51 -26 -67 -26 -181 0 -116 2 -129 27 -175 50 -94 127 -146 242 -165 127 -20 263 21 327 99 16 20 29 41 29 48 0 7 -27 26 -60 43 l-61 31 -24 -29 c-49 -58 -145 -79 -218 -48 -55 23 -107 102 -107 164 0 9 57 12 250 12 l250 0 0 59 c0 137 -68 256 -172 301 -59 26 -178 36 -241 20z m161 -135 c44 -18 80 -60 88 -105 l7 -30 -168 0 -167 0 7 28 c10 40 53 92 89 108 42 18 97 17 144 -1z"/>
<path d="M3235 3351 c-50 -13 -90 -38 -125 -78 -19 -21 -35 -32 -37 -26 -9 27 -47 65 -84 83 -74 38 -224 19 -268 -33 -20 -25 -31 -21 -31 13 l0 30 -70 0 -70 0 0 -340 0 -340 80 0 80 0 0 220 c0 247 6 275 62 310 36 23 99 22 136 -1 44 -27 47 -44 52 -289 l5 -235 80 0 80 0 5 235 c6 269 9 281 81 300 59 16 117 -4 144 -50 18 -32 20 -55 23 -263 l3 -228 77 3 77 3 0 255 c0 278 -2 290 -61 359 -48 57 -163 92 -239 72z"/>
<path d="M3899 3346 c-99 -26 -177 -94 -215 -186 -8 -19 -20 -67 -26 -107 -21 -137 26 -279 113 -343 146 -105 395 -81 498 48 35 45 35 46 -46 85 l-52 25 -23 -26 c-55 -59 -157 -78 -234 -43 -47 22 -80 68 -90 129 l-7 42 253 0 253 0 -6 73 c-8 92 -19 131 -57 190 -66 104 -218 152 -361 113z m188 -142 c35 -26 61 -62 69 -96 l6 -28 -166 0 c-143 0 -166 2 -166 15 0 40 52 104 100 124 38 16 127 7 157 -15z"/>
<path d="M5066 3349 c-45 -11 -102 -43 -115 -66 -6 -12 -10 -7 -15 21 l-7 36 -69 0 -70 0 0 -340 0 -340 79 0 79 0 4 228 c3 252 6 263 71 302 63 39 165 17 199 -42 9 -16 14 -89 18 -253 l5 -230 78 -3 78 -3 -3 263 c-3 248 -4 265 -25 304 -56 105 -177 153 -307 123z"/>
<path d="M5710 3351 c-96 -30 -155 -90 -166 -173 -17 -123 58 -198 243 -242 39 -10 79 -26 89 -37 25 -28 21 -69 -10 -96 -53 -45 -171 -22 -202 39 -13 25 -20 29 -42 23 -115 -27 -116 -28 -82 -95 83 -163 438 -158 506 7 22 51 18 142 -7 183 -12 19 -29 41 -38 48 -27 22 -112 58 -184 76 -79 21 -117 48 -117 81 0 48 74 86 136 71 27 -7 77 -51 85 -73 6 -17 119 25 119 44 0 47 -70 119 -134 138 -52 16 -154 19 -196 6z"/>
<path d="M6397 3350 c-165 -42 -258 -187 -244 -382 9 -133 68 -231 172 -286 46 -25 60 -27 165 -27 100 0 120 3 157 23 60 31 111 79 134 123 21 43 22 42 -58 70 l-57 19 -40 -39 c-69 -67 -170 -75 -241 -19 -91 72 -87 283 8 350 68 48 199 31 235 -32 9 -16 21 -30 25 -30 8 0 100 24 135 36 10 3 9 11 -4 36 -54 104 -142 157 -270 164 -44 2 -96 -1 -117 -6z"/>
<path d="M7914 3348 c-57 -6 -129 -33 -164 -61 -20 -16 -60 -68 -60 -78 0 -4 25 -22 56 -39 l56 -32 31 30 c55 52 114 69 178 52 45 -12 69 -43 76 -98 l5 -38 -116 -12 c-212 -21 -305 -89 -306 -225 0 -121 92 -199 235 -200 75 -1 131 20 170 63 l19 21 12 -33 c11 -33 12 -33 77 -36 l67 -3 0 244 c0 282 -7 321 -67 379 -21 20 -51 42 -68 48 -46 18 -133 26 -201 18z m176 -419 c0 -104 -65 -166 -163 -156 -111 10 -133 122 -35 173 33 17 100 31 161 33 l37 1 0 -51z"/>
<path d="M4450 3000 l0 -341 78 3 77 3 3 338 2 337 -80 0 -80 0 0 -340z"/>
<path d="M2789 2411 c-48 -49 -38 -125 21 -156 80 -42 163 20 146 109 -14 76 -111 103 -167 47z"/>
<path d="M4339 2425 c-66 -21 -143 -93 -163 -152 -58 -171 40 -304 272 -368 120 -32 159 -54 178 -100 45 -109 -18 -195 -144 -195 -69 0 -130 34 -170 95 -17 28 -35 49 -40 49 -22 -5 -132 -80 -132 -92 0 -50 93 -140 179 -173 76 -30 231 -32 310 -5 78 27 154 103 175 175 40 136 0 260 -105 327 -22 13 -97 41 -167 60 -145 41 -184 62 -202 104 -29 70 21 130 113 138 89 7 146 -24 193 -103 10 -17 14 -16 72 19 40 24 62 44 62 56 0 37 -64 104 -134 140 -60 30 -77 34 -159 37 -61 2 -108 -2 -138 -12z"/>
<path d="M5035 2361 l-50 -6 -3 -100 -3 -100 -62 0 -62 0 0 -65 0 -65 63 -3 62 -3 0 -198 c0 -196 0 -198 28 -251 38 -76 95 -105 202 -105 102 1 120 12 120 75 0 77 -3 80 -69 73 -109 -11 -121 14 -121 249 l0 157 93 3 92 3 3 54 c2 30 -2 59 -8 65 -6 6 -46 11 -93 11 l-82 0 -3 108 -3 107 -27 -2 c-15 0 -49 -4 -77 -7z"/>
<path d="M3371 2155 c-24 -7 -56 -26 -72 -41 -29 -28 -33 -26 -41 21 -3 18 -11 20 -71 20 -37 0 -67 -3 -67 -7 0 -5 0 -156 0 -338 l0 -330 80 0 80 0 0 223 c0 203 2 225 20 254 28 47 72 66 137 61 44 -4 60 -11 86 -37 l32 -31 5 -233 5 -232 78 -3 77 -3 0 239 c0 278 -8 320 -70 382 -64 64 -178 86 -279 55z"/>
<path d="M5625 2161 c-93 -23 -163 -83 -209 -180 -28 -61 -31 -74 -30 -171 1 -137 23 -200 95 -264 67 -60 130 -81 244 -81 94 1 153 19 212 65 36 28 74 81 66 93 -3 5 -30 20 -61 34 l-55 24 -31 -30 c-17 -16 -44 -35 -59 -40 -41 -16 -123 -13 -156 4 -42 21 -80 71 -87 113 -3 20 -6 41 -7 46 -1 5 105 9 243 10 l245 1 3 35 c5 50 -16 147 -44 201 -30 61 -95 116 -158 134 -51 16 -159 18 -211 6z m175 -136 c33 -17 66 -60 75 -98 l7 -27 -166 0 -166 0 15 37 c19 46 32 62 70 85 37 22 124 24 165 3z"/>
<path d="M2785 2148 c-3 -7 -4 -159 -3 -338 l3 -325 80 0 80 0 0 335 0 335 -78 3 c-56 2 -79 -1 -82 -10z"/>
<path d="M6096 2151 c-7 -10 30 -110 174 -472 80 -201 80 -201 64 -235 -18 -39 -76 -93 -102 -96 -9 -1 -35 -2 -57 -2 l-40 -1 -3 -67 c-3 -65 -2 -68 23 -74 39 -10 118 2 162 25 44 22 113 93 138 141 9 17 46 106 82 198 177 453 223 576 215 584 -5 5 -42 8 -83 6 l-74 -3 -79 -235 c-44 -129 -81 -230 -83 -225 -2 6 -41 111 -86 235 l-82 225 -82 3 c-46 2 -84 -1 -87 -7z"/>
<path d="M6870 1820 l0 -340 79 0 79 0 3 208 c4 185 6 211 24 241 35 59 67 76 146 76 l70 0 -3 75 -3 75 -55 3 c-60 4 -127 -17 -155 -48 -25 -28 -33 -25 -37 13 l-3 32 -72 3 -73 3 0 -341z"/>
</g>
</svg>
