<?xml version="1.0" standalone="no"?>
<!DOCTYPE svg PUBLIC "-//W3C//DTD SVG 20010904//EN" "http://www.w3.org/TR/2001/REC-SVG-20010904/DTD/svg10.dtd">
<svg xmlns="http://www.w3.org/2000/svg" version="1.0" width="1024.000000pt" height="1024.000000pt" viewBox="0 0 1024.000000 1024.000000" preserveAspectRatio="xMidYMid meet">
<metadata>
Created by potrace 1.16, written by Peter Selinger 2001-2019
<meta name="Producer" content="Online-Convert"/></metadata>
<g transform="translate(0.000000,1024.000000) scale(0.100000,-0.100000)" fill="#000000" stroke="none">
<path d="M8396 10226 c3 -8 1 -17 -5 -21 -6 -3 -11 -14 -11 -24 0 -9 -11 -32 -24 -50 -13 -18 -27 -48 -31 -67 -3 -19 -11 -37 -18 -40 -7 -2 -12 -17 -13 -33 -1 -16 -9 -37 -18 -46 -9 -10 -20 -30 -23 -46 -3 -16 -7 -29 -9 -29 -2 0 -17 14 -34 30 -23 23 -27 30 -14 30 10 0 15 3 11 6 -3 4 -13 4 -22 0 -13 -4 -14 -10 -5 -26 6 -11 18 -20 26 -20 11 0 15 -8 13 -28 -2 -15 0 -32 3 -37 4 -6 -13 -33 -38 -60 -24 -28 -44 -46 -44 -41 0 5 7 18 17 28 9 11 11 18 5 18 -19 0 -27 -4 -24 -12 4 -13 -5 -9 -23 8 -12 13 -19 14 -30 4 -12 -10 -15 -10 -15 0 0 8 -2 11 -5 8 -13 -13 8 -58 26 -58 24 0 25 17 2 24 -10 2 -7 4 7 3 15 -2 24 -8 22 -16 -1 -7 11 -18 27 -24 32 -12 32 -9 16 -147 -2 -19 -4 -63 -5 -97 0 -55 -2 -62 -17 -57 -11 4 -14 3 -7 -3 11 -8 10 -148 -1 -263 -10 -93 -2 -249 13 -276 6 -11 6 -30 1 -48 -5 -17 -9 -45 -9 -63 0 -17 -7 -38 -15 -46 -8 -8 -12 -17 -9 -20 3 -3 0 -14 -7 -24 -9 -15 -9 -34 -1 -79 l11 -59 -5 63 c-4 51 -1 67 14 90 29 40 40 145 27 242 -3 25 -3 40 2 34 4 -6 47 -12 98 -14 50 -1 126 -4 170 -6 53 -2 73 0 60 6 l-20 9 20 2 c54 6 75 5 75 -2 0 -5 -12 -9 -27 -9 -33 0 -28 -5 15 -13 31 -6 33 -5 26 15 -5 18 -4 19 9 7 8 -8 13 -17 10 -21 -9 -15 113 -7 155 10 72 30 152 109 194 194 34 68 61 153 44 136 -4 -3 -8 -12 -10 -20 -3 -24 -31 -78 -39 -78 -5 0 -5 -4 -2 -10 3 -5 1 -10 -6 -10 -7 0 -10 -3 -6 -6 9 -9 -33 -84 -47 -83 -7 0 -7 2 2 6 6 2 12 9 12 14 0 5 -9 4 -20 -3 -14 -9 -16 -14 -7 -20 9 -5 8 -12 -5 -24 -16 -16 -19 -15 -46 11 -20 18 -29 37 -28 52 4 33 13 38 28 14 14 -23 30 -29 22 -8 -3 8 3 20 12 28 13 11 18 11 21 2 8 -22 33 -14 43 13 14 36 13 44 -7 44 -15 0 -16 2 -3 10 13 8 12 10 -2 10 -10 0 -18 -1 -18 -3 0 -1 4 -17 9 -34 5 -18 6 -35 1 -38 -11 -7 -23 31 -23 70 l1 30 -12 -26 c-9 -21 -13 -24 -23 -14 -8 9 -9 15 0 24 8 8 8 11 -1 11 -6 0 -16 -9 -22 -20 -9 -16 -8 -20 5 -20 8 0 15 -4 15 -10 0 -5 7 -10 15 -10 21 0 19 -12 -5 -32 -21 -19 -33 -10 -24 19 5 15 4 15 -5 3 -6 -8 -11 -10 -11 -5 0 6 -16 10 -35 10 -26 -1 -34 2 -31 12 3 7 1 13 -5 13 -6 0 -7 5 -3 12 4 7 3 8 -4 4 -8 -4 -12 0 -12 11 -1 17 -1 17 -14 0 -14 -18 -15 -17 -21 3 -10 31 2 37 36 18 16 -9 29 -13 29 -8 0 6 -4 10 -10 10 -5 0 -10 11 -10 24 0 15 -7 26 -17 29 -14 4 -13 5 3 6 16 1 24 -7 30 -26 5 -19 8 -23 11 -12 6 25 40 31 46 8 3 -13 11 -17 21 -13 9 3 16 1 16 -5 0 -6 7 -11 15 -11 8 0 15 7 15 15 0 18 46 21 54 3 3 -7 4 -4 3 7 -2 17 4 20 36 20 29 0 37 4 37 18 0 9 4 17 10 17 5 0 17 11 26 25 14 22 15 31 4 71 -8 26 -13 53 -13 60 0 8 -6 14 -12 14 -14 0 -12 -24 4 -63 13 -34 14 -67 2 -67 -11 0 -21 25 -21 51 0 10 -7 19 -15 19 -18 0 -20 -16 -2 -23 7 -3 4 -6 -6 -6 -35 -2 -62 53 -35 70 8 6 4 8 -12 5 -14 -3 -29 -5 -34 -5 -5 -1 -6 -14 -2 -31 4 -22 2 -30 -9 -30 -8 0 -15 -5 -15 -11 0 -5 5 -7 10 -4 6 3 10 2 10 -4 0 -18 -18 -21 -26 -3 -4 9 -6 20 -6 25 1 4 -2 7 -8 7 -5 0 -6 7 -3 17 4 11 3 14 -5 9 -14 -8 -16 -46 -3 -46 20 0 17 -26 -5 -37 -19 -9 -26 -8 -36 5 -11 13 -10 14 10 8 16 -5 22 -3 22 7 0 10 -8 13 -26 9 -20 -3 -25 -2 -19 7 4 7 13 10 21 7 10 -4 12 2 7 26 -4 22 -3 29 5 24 7 -4 12 -1 12 6 0 7 -19 22 -43 33 -23 11 -41 25 -39 30 3 15 27 12 24 -2 -3 -18 15 -16 22 3 3 8 2 12 -4 9 -6 -3 -10 -2 -10 3 0 6 7 13 16 16 8 3 12 11 8 17 -4 7 -9 8 -13 1 -4 -7 -12 -6 -24 3 -12 8 -14 15 -8 20 6 3 11 0 11 -7 0 -11 2 -11 9 0 12 19 81 23 81 5 0 -8 4 -12 10 -8 5 3 6 13 3 22 -4 10 -2 14 5 9 6 -3 13 -2 16 3 4 6 18 5 35 -2 17 -6 28 -14 25 -19 -3 -4 2 -5 11 -2 9 4 14 13 11 20 -3 8 1 14 11 14 26 0 11 8 -26 15 -30 5 -33 4 -21 -10 18 -22 -2 -19 -28 5 -24 23 -51 28 -33 7 8 -10 7 -14 -4 -14 -8 0 -15 9 -15 19 0 15 -5 18 -22 13 -39 -12 -43 -11 -41 13 2 13 -1 21 -7 17 -6 -3 -10 -2 -10 3 0 6 7 12 15 16 11 4 14 13 9 31 -6 25 1 30 34 26 8 -1 19 3 27 9 10 8 15 8 21 -1 4 -7 -1 -18 -11 -26 -11 -7 -14 -13 -8 -13 26 0 41 45 20 61 -10 7 2 39 14 39 5 0 9 -4 9 -10 0 -5 7 -10 15 -10 8 0 15 -6 15 -12 0 -9 3 -9 9 1 8 12 12 12 25 2 12 -10 13 -16 3 -32 -10 -16 -9 -21 3 -29 20 -13 33 -13 25 0 -3 6 -2 10 4 10 5 0 8 12 6 28 -2 15 2 33 7 40 6 6 7 12 2 12 -5 0 -3 4 5 9 7 5 9 11 4 14 -5 3 -20 -4 -33 -15 -14 -11 -19 -17 -13 -13 9 4 11 1 7 -10 -6 -14 -8 -14 -24 0 -9 8 -24 13 -33 9 -12 -4 -14 -1 -10 16 4 14 9 18 16 11 13 -13 37 -2 30 15 -4 10 0 12 11 8 9 -3 16 -10 16 -16 0 -14 18 0 31 24 10 18 9 20 -5 15 -10 -4 -16 -1 -16 8 0 18 -37 128 -55 161 -7 13 -11 36 -9 50 2 21 0 23 -12 13 -8 -7 -14 -7 -14 -1 0 14 29 36 37 28 4 -4 7 -22 6 -41 -1 -19 3 -32 8 -29 5 3 6 10 3 16 -5 7 -2 8 5 3 7 -4 11 -16 8 -26 -3 -11 -2 -17 3 -14 4 3 11 -2 14 -11 4 -12 2 -15 -9 -10 -8 3 -15 2 -15 -3 0 -5 9 -11 20 -14 13 -3 18 -10 14 -21 -3 -9 -11 -13 -18 -9 -6 4 -5 -1 3 -10 15 -19 26 -23 15 -6 -4 7 -1 10 7 7 8 -2 18 -19 24 -36 13 -45 25 -40 13 6 -13 52 -100 225 -116 230 -7 2 -10 -2 -6 -11 3 -8 -2 -17 -10 -20 -13 -5 -13 -2 -5 20 19 51 10 53 -267 53 -213 0 -253 -2 -248 -14z"/>
<path d="M2120 10081 c-25 -4 -56 -13 -69 -20 -52 -29 -121 -83 -116 -92 3 -5 -13 -29 -36 -53 -22 -25 -39 -51 -36 -58 4 -9 6 -9 6 2 1 9 14 27 30 41 25 22 30 23 40 10 10 -13 10 -13 3 3 -10 20 6 76 21 76 4 0 5 -5 2 -10 -4 -7 2 -9 17 -5 12 3 33 7 45 8 12 0 20 4 17 8 -6 11 55 39 71 33 7 -3 16 -1 19 5 8 12 36 3 36 -11 0 -5 -4 -7 -10 -3 -11 7 -82 -30 -73 -39 3 -3 12 -1 19 5 16 13 48 4 39 -11 -9 -14 4 -32 17 -24 6 4 5 10 -3 15 -12 7 -11 9 0 9 11 0 9 4 -5 15 -19 14 -18 14 4 16 35 2 40 4 48 12 4 4 0 7 -9 7 -9 0 -17 4 -17 10 0 11 35 8 46 -3 13 -13 24 -7 24 13 0 22 -31 41 -37 23 -3 -7 -20 -9 -45 -6 -22 3 -43 2 -47 -3 -7 -11 -57 -34 -71 -34 -6 0 -10 8 -10 18 0 13 2 14 9 3 7 -11 12 -10 28 6 10 10 34 20 53 21 19 1 58 6 85 11 l50 9 -50 -1 c-27 0 -70 -3 -95 -6z"/>
<path d="M6780 9056 c0 -71 -2 -77 -17 -71 -69 30 -144 -1 -174 -71 -25 -55 -27 -159 -5 -202 39 -76 123 -96 177 -43 l29 29 0 -26 c0 -24 4 -27 35 -27 l35 0 0 247 0 246 -40 -1 -40 -2 0 -79z m-2 -215 c3 -97 -9 -121 -64 -121 -49 0 -68 33 -62 110 6 77 26 102 82 98 l41 -3 3 -84z"/>
<path d="M3953 9083 l-43 -4 0 -230 0 -229 44 0 45 0 -2 235 c-1 129 -1 234 -2 233 0 -1 -19 -3 -42 -5z"/>
<path d="M3257 9062 c-2 -4 -4 -22 -6 -39 l-3 -33 67 0 68 0 -7 -190 -6 -190 45 0 45 0 0 193 0 192 61 0 61 0 4 38 3 37 -164 -1 c-91 0 -166 -3 -168 -7z"/>
<path d="M6207 9053 c-4 -3 -7 -21 -7 -40 0 -27 -4 -33 -21 -33 -17 0 -20 -5 -17 -32 2 -24 8 -34 23 -36 19 -3 20 -9 17 -112 l-4 -109 30 -31 c24 -23 39 -30 70 -30 58 0 72 8 72 41 0 26 -3 29 -34 29 -50 0 -57 15 -54 121 l3 94 41 3 c38 3 42 6 46 33 4 28 3 29 -39 29 l-43 0 0 40 c0 40 0 40 -38 40 -21 0 -42 -3 -45 -7z"/>
<path d="M7195 8993 c-33 -8 -84 -64 -95 -103 -15 -54 -12 -131 8 -170 22 -45 92 -82 142 -76 86 10 98 16 105 53 8 42 3 48 -23 34 -28 -15 -114 -14 -135 2 -9 6 -20 27 -23 45 l-6 32 101 0 101 0 0 40 c0 53 -22 104 -54 125 -27 18 -88 27 -121 18z"/>
<path d="M5961 8973 c-40 -20 -65 -71 -56 -114 7 -32 55 -74 98 -84 15 -4 34 -17 43 -29 14 -19 13 -23 -10 -42 -20 -18 -31 -20 -63 -14 -21 4 -46 11 -55 15 -15 6 -18 2 -18 -28 0 -39 14 -47 88 -47 101 0 155 59 130 142 -11 36 -19 44 -68 66 -76 34 -82 40 -69 64 10 18 18 20 64 15 56 -6 65 0 65 43 0 12 -10 19 -37 24 -57 9 -75 7 -112 -11z"/>
<path d="M6940 8817 l0 -172 43 3 42 4 -2 161 c-2 89 -3 165 -3 170 0 4 -18 7 -40 7 l-40 0 0 -173z"/>
<path d="M5073 8964 c-18 -9 -33 -20 -33 -25 0 -5 -5 -9 -10 -9 -6 0 -10 8 -8 18 2 14 -5 18 -40 20 l-43 3 2 -175 1 -176 45 0 44 0 -2 127 c-1 120 0 128 21 145 28 23 35 23 61 -3 18 -18 20 -31 18 -142 l-1 -122 38 0 39 0 -1 135 c0 162 -5 185 -44 205 -36 19 -47 19 -87 -1z"/>
<path d="M5375 8972 c-83 -3 -83 -3 -94 -34 -6 -17 -11 -32 -11 -34 0 -2 36 -1 81 3 l80 6 -22 -39 c-29 -50 -65 -99 -106 -147 -22 -24 -33 -47 -33 -67 l0 -30 124 0 c120 0 124 1 130 23 12 44 9 46 -72 49 l-79 3 73 105 c55 78 74 113 74 138 0 30 -2 32 -31 30 -17 -2 -68 -4 -114 -6z"/>
<path d="M5748 8810 l-3 -170 45 0 45 0 0 170 0 170 -42 0 -42 0 -3 -170z"/>
<path d="M4166 8959 c-68 -18 -106 -84 -106 -181 0 -79 23 -127 70 -150 71 -36 181 -15 194 37 4 15 5 29 3 31 -2 2 -21 -2 -43 -9 -48 -16 -102 -13 -121 5 -7 8 -16 31 -20 51 l-5 36 98 3 99 3 -4 45 c-3 48 -20 88 -46 110 -22 18 -84 28 -119 19z"/>
<path d="M4395 8960 c-1 -3 -1 -81 0 -175 1 -124 5 -170 13 -169 7 1 24 2 40 3 l27 1 1 105 c1 121 12 145 71 145 l33 0 0 51 c0 51 0 51 -27 44 -16 -3 -43 -21 -61 -38 -20 -19 -33 -26 -32 -17 7 48 0 59 -31 57 -17 -1 -32 -4 -34 -7z"/>
<path d="M4686 8960 c-42 -8 -56 -22 -56 -59 0 -18 4 -22 18 -16 85 34 117 31 127 -15 8 -38 0 -50 -33 -50 -34 0 -111 -35 -128 -58 -29 -38 -11 -121 31 -140 31 -14 90 -4 111 19 21 23 34 24 34 4 0 -26 43 -39 76 -24 35 17 45 49 15 49 -19 0 -21 6 -22 73 -2 177 -9 198 -78 217 -40 11 -39 11 -95 0z"/>
<path d="M3654 8951 c-31 -14 -72 -67 -84 -109 -42 -152 46 -266 178 -230 73 20 104 69 104 167 0 77 -20 132 -55 156 -29 19 -114 28 -143 16z m103 -87 c24 -37 29 -123 9 -162 -30 -58 -95 -50 -116 14 -15 43 -9 136 9 158 22 26 78 20 98 -10z"/>
<path d="M6221 8341 l4 -79 -27 14 c-48 25 -86 18 -128 -24 -46 -46 -65 -106 -56 -181 8 -64 35 -113 72 -130 38 -17 90 -4 119 31 l25 30 0 -25 c0 -25 16 -37 51 -37 18 0 19 10 19 240 l0 240 -41 0 -41 0 3 -79z m-20 -121 c16 -9 19 -22 19 -86 0 -89 -17 -124 -60 -124 -38 0 -58 22 -65 73 -15 101 40 172 106 137z"/>
<path d="M3380 8203 c0 -109 -3 -214 -6 -234 l-6 -37 46 -3 46 -4 0 84 0 85 36 -60 c20 -32 40 -69 45 -81 7 -20 16 -23 59 -23 27 0 50 4 50 8 0 5 -27 48 -60 97 l-61 88 48 51 c27 28 57 61 67 74 l19 22 -50 0 -50 0 -49 -72 -49 -73 -3 138 -3 137 -39 0 -40 0 0 -197z"/>
<path d="M2963 8382 l-123 -3 0 -227 0 -227 119 0 120 0 10 42 c6 23 11 44 11 46 0 3 -17 1 -37 -4 -21 -5 -62 -9 -90 -9 l-53 0 0 65 0 65 75 0 c67 0 75 2 75 19 0 11 3 27 6 36 6 14 -2 16 -72 14 l-79 -2 -3 57 -3 58 80 -3 80 -4 7 38 c3 21 4 39 2 40 -1 1 -58 1 -125 -1z"/>
<path d="M4723 8343 c-30 -4 -33 -7 -33 -39 0 -30 -3 -34 -25 -34 -22 0 -25 -4 -25 -35 0 -28 4 -35 20 -35 18 0 20 -7 21 -92 1 -51 1 -97 0 -101 -1 -4 5 -20 14 -36 15 -30 59 -51 104 -51 35 0 48 10 56 43 7 26 5 27 -28 27 -19 0 -40 6 -46 14 -16 19 -26 114 -17 160 7 35 8 36 51 36 45 0 45 0 45 35 0 35 0 35 -45 35 l-45 0 0 40 c0 22 -3 39 -7 38 -5 0 -23 -3 -40 -5z"/>
<path d="M6764 8279 c-43 -12 -68 -44 -68 -84 0 -42 31 -78 94 -108 39 -19 45 -26 45 -52 0 -27 -3 -30 -37 -33 -20 -2 -50 4 -67 12 -40 21 -41 21 -41 -19 0 -42 23 -55 96 -55 81 0 134 47 134 120 0 37 -43 84 -87 95 -56 14 -80 55 -44 75 21 10 78 3 87 -11 12 -20 24 -7 24 25 0 30 -4 34 -31 40 -40 8 -66 7 -105 -5z"/>
<path d="M7021 8276 c-13 -7 -30 -24 -37 -37 -32 -57 -5 -111 71 -144 67 -30 79 -45 59 -73 -18 -26 -74 -30 -118 -7 -15 8 -30 15 -33 15 -8 0 10 -75 21 -82 22 -15 127 -8 157 9 43 26 64 77 50 123 -12 40 -34 59 -94 81 -50 18 -64 34 -46 55 11 13 25 15 70 10 55 -5 57 -5 62 20 3 17 -1 28 -14 34 -26 14 -120 12 -148 -4z"/>
<path d="M3254 8244 l-34 -35 0 31 c0 30 -2 31 -37 28 l-36 -3 0 -168 c0 -92 2 -170 5 -173 3 -3 22 -2 42 1 l36 7 0 103 c0 116 14 148 66 150 27 2 29 5 32 48 3 43 2 47 -19 47 -12 0 -36 -16 -55 -36z"/>
<path d="M5056 8270 c-15 -5 -37 -17 -47 -26 -18 -16 -19 -16 -19 4 0 19 -6 22 -40 22 l-40 0 0 -170 0 -170 45 0 45 0 0 125 c0 122 0 125 25 141 21 14 31 15 50 6 25 -11 25 -13 25 -142 l0 -130 40 2 40 3 0 143 0 144 -29 29 c-31 30 -46 33 -95 19z"/>
<path d="M5298 8272 l-38 -3 0 -170 0 -169 43 0 42 0 0 170 c-1 93 -3 171 -6 172 -2 2 -21 2 -41 0z"/>
<path d="M5468 8264 c-35 -18 -48 -43 -48 -88 0 -42 22 -68 77 -91 73 -31 91 -63 49 -90 -24 -16 -60 -12 -122 12 -10 4 -14 -4 -14 -30 0 -35 1 -36 45 -43 104 -15 170 17 182 89 8 50 -15 82 -85 115 -67 32 -81 64 -38 83 21 10 34 9 65 -3 l39 -16 4 30 c4 24 0 31 -19 39 -36 13 -104 10 -135 -7z"/>
<path d="M6423 8269 c-29 -8 -33 -14 -33 -44 0 -39 4 -41 40 -20 31 18 82 19 98 3 7 -7 12 -22 12 -34 0 -17 -8 -23 -40 -28 -112 -18 -165 -88 -125 -165 16 -33 33 -41 81 -41 24 0 43 8 59 24 23 23 25 23 30 6 7 -24 38 -34 73 -25 41 10 58 45 22 45 -19 0 -20 7 -20 105 0 112 -12 155 -49 175 -24 12 -104 12 -148 -1z"/>
<path d="M3715 8237 c-40 -40 -59 -104 -52 -174 12 -114 106 -171 210 -128 27 11 36 21 39 45 4 25 2 30 -11 25 -65 -25 -133 -16 -149 21 -7 14 -12 34 -12 44 0 18 7 20 95 20 l95 0 0 40 c0 84 -53 140 -132 140 -43 0 -55 -5 -83 -33z"/>
<path d="M3990 8123 c0 -82 -3 -158 -6 -170 -6 -21 -3 -23 40 -23 l46 0 0 120 c0 116 1 120 24 136 34 22 69 15 77 -16 3 -14 4 -75 2 -135 l-3 -110 43 3 43 4 3 127 c2 130 -6 174 -37 197 -25 20 -83 17 -119 -6 -33 -20 -33 -20 -33 0 0 17 -7 20 -40 20 l-40 0 0 -147z"/>
<path d="M4332 8098 l3 -172 37 -1 37 0 7 63 c3 35 4 86 2 113 -6 58 18 99 57 99 33 0 43 -24 38 -90 -2 -30 -1 -83 2 -117 l7 -63 39 0 39 0 0 143 c-1 148 -4 163 -47 185 -36 20 -79 14 -112 -14 l-31 -26 0 26 c0 24 -4 26 -40 26 l-40 0 2 -172z"/>
<path d="M3150 7650 l0 -81 -31 16 c-55 29 -121 -8 -154 -87 -19 -46 -20 -138 -1 -181 34 -80 112 -104 167 -51 28 27 29 27 29 6 0 -19 5 -22 41 -22 33 0 40 3 35 16 -3 9 -6 117 -6 240 l0 224 -40 0 -40 0 0 -80z m-19 -130 c16 -9 19 -22 19 -94 0 -94 -15 -120 -66 -114 -37 4 -54 38 -54 109 0 87 43 129 101 99z"/>
<path d="M5720 7485 l0 -235 40 3 40 2 0 119 c0 101 3 121 18 132 24 19 69 17 76 -2 3 -9 6 -70 6 -135 l0 -120 40 3 c22 2 40 6 40 11 0 4 0 67 0 141 0 128 -1 136 -24 163 -32 37 -93 39 -130 4 l-26 -24 0 86 0 87 -40 0 -40 0 0 -235z"/>
<path d="M4009 7653 c0 -27 -2 -66 -4 -88 -2 -22 -6 -95 -9 -161 -3 -67 -9 -129 -12 -138 -5 -13 1 -16 35 -16 l41 0 2 138 c0 75 0 148 -1 160 -1 15 2 21 8 17 6 -3 11 -13 11 -20 0 -12 68 -204 75 -213 1 -2 18 -5 36 -8 38 -6 30 -20 99 150 22 55 40 105 40 113 0 7 5 13 11 13 6 0 8 -7 5 -16 -3 -9 -9 -88 -13 -175 l-6 -159 47 0 47 0 -3 225 -3 225 -46 0 -46 0 -38 -97 c-22 -54 -47 -118 -58 -142 l-19 -44 -33 85 c-18 46 -41 110 -51 141 l-18 57 -48 0 -48 0 -1 -47z"/>
<path d="M4587 7588 c-55 -15 -90 -71 -95 -153 -8 -125 41 -188 146 -188 86 0 95 5 109 51 6 23 10 42 9 42 -2 0 -20 -7 -39 -15 -76 -32 -138 -12 -148 48 l-6 37 99 0 98 0 0 38 c0 69 -50 135 -110 146 -14 2 -42 0 -63 -6z"/>
<path d="M5500 7578 c-58 -30 -84 -80 -84 -162 1 -98 40 -151 122 -165 33 -6 98 0 106 10 2 2 6 21 9 42 5 34 4 38 -11 32 -56 -23 -83 -23 -110 0 -24 21 -27 30 -27 89 0 54 4 70 22 87 22 23 62 29 101 16 20 -8 22 -6 22 32 l0 41 -53 0 c-35 0 -68 -8 -97 -22z"/>
<path d="M7040 7583 c-14 -9 -30 -24 -37 -33 -11 -13 -12 -11 -13 13 0 25 -3 27 -37 27 l-38 0 0 -165 0 -165 43 0 42 0 0 103 c0 95 2 105 23 125 13 12 35 22 50 22 24 0 27 4 27 35 0 19 1 38 3 43 5 15 -39 12 -63 -5z"/>
<path d="M3362 7578 c-40 -20 -65 -74 -69 -152 -5 -84 13 -128 66 -163 62 -42 155 -25 174 30 10 32 3 47 -15 29 -7 -7 -33 -12 -58 -12 -52 0 -84 25 -92 73 l-5 27 99 0 100 0 -6 28 c-21 85 -29 103 -57 126 -33 28 -94 34 -137 14z"/>
<path d="M3720 7560 c-34 -36 -40 -37 -40 -5 0 22 -5 25 -32 25 l-33 0 0 -165 0 -165 41 0 40 0 0 111 c-1 122 7 139 66 139 27 0 28 2 28 45 0 39 -3 45 -21 45 -12 0 -34 -13 -49 -30z"/>
<path d="M4933 7564 c-32 -25 -33 -25 -33 -5 0 18 -6 21 -40 21 l-40 0 0 -166 0 -165 42 3 42 3 -2 112 c-2 104 0 114 20 133 24 22 63 27 74 8 5 -7 8 -68 8 -135 l-1 -123 41 0 41 0 -3 132 c-3 165 -5 174 -42 193 -41 21 -70 19 -107 -11z"/>
<path d="M5198 7574 c-74 -40 -60 -141 24 -174 65 -26 86 -63 53 -90 -16 -13 -68 -6 -117 15 -15 6 -18 2 -18 -28 0 -25 5 -37 18 -41 89 -26 163 -12 192 37 25 40 26 88 3 116 -10 12 -42 33 -72 49 -30 15 -56 32 -58 39 -3 6 7 19 21 28 21 14 31 15 61 5 41 -14 40 -14 48 21 6 22 3 28 -16 33 -39 10 -111 6 -139 -10z"/>
<path d="M6225 7420 l0 -170 43 0 42 0 0 118 c0 103 3 121 18 135 21 20 67 22 78 5 4 -6 7 -67 6 -135 l-2 -123 45 0 45 0 0 125 c0 135 -12 185 -48 204 -31 17 -73 13 -109 -9 -33 -20 -33 -20 -33 0 0 17 -7 20 -42 20 l-43 0 0 -170z"/>
<path d="M6570 7461 c0 -71 4 -141 10 -155 5 -14 24 -35 41 -45 34 -21 69 -16 115 14 21 14 24 14 24 0 0 -11 11 -15 40 -15 l40 0 0 165 0 165 -45 0 -45 0 0 -124 c0 -136 -6 -150 -57 -144 -24 3 -29 9 -34 42 -3 21 -5 81 -5 132 l2 94 -43 0 -43 0 0 -129z"/>
<path d="M5250 6805 l0 -245 40 0 40 0 0 123 c0 106 3 126 18 139 30 27 51 29 73 7 18 -18 19 -28 13 -144 l-7 -125 48 0 48 0 -8 152 c-4 83 -12 159 -18 169 -26 41 -85 49 -134 19 l-33 -20 0 85 0 85 -40 0 -40 0 0 -245z"/>
<path d="M3550 6883 c0 -82 -3 -185 -7 -230 l-6 -83 36 0 c47 0 48 4 44 193 -1 81 1 140 5 130 4 -10 26 -69 49 -130 42 -112 42 -113 74 -113 33 0 33 1 86 134 l54 134 -3 -174 -4 -174 48 0 47 0 -7 46 c-3 26 -6 130 -6 231 l0 184 -46 -3 -46 -3 -52 -132 c-28 -73 -54 -133 -57 -133 -4 0 -9 8 -12 19 -2 10 -26 71 -53 134 l-49 116 -47 1 -48 0 0 -147z"/>
<path d="M6213 6973 c-7 -2 -13 -20 -13 -38 0 -27 -4 -34 -22 -37 -18 -2 -24 -11 -26 -35 -3 -30 -1 -33 23 -33 l25 0 -5 -77 c-11 -149 16 -202 103 -206 46 -1 56 5 66 46 6 25 4 27 -28 27 -56 0 -66 19 -66 121 l0 89 44 0 c43 0 44 1 48 35 l4 35 -48 0 -48 0 0 40 c0 35 -3 40 -22 39 -13 0 -29 -3 -35 -6z"/>
<path d="M4125 6911 c-116 -51 -129 -283 -20 -335 29 -14 52 -17 92 -13 65 7 83 20 83 58 l0 29 -37 -15 c-67 -28 -128 -1 -135 60 l-3 30 93 0 c104 0 109 3 97 77 -10 58 -58 108 -110 113 -22 3 -49 1 -60 -4z"/>
<path d="M4355 6740 c0 -93 2 -170 5 -170 3 -1 22 -3 43 -6 l37 -6 0 126 c0 123 0 126 25 142 21 14 31 15 50 6 25 -11 25 -13 25 -142 l0 -130 41 0 40 0 -3 149 c-3 142 -4 151 -27 175 -30 32 -73 34 -118 6 -33 -20 -33 -20 -33 0 0 17 -7 20 -42 20 l-43 0 0 -170z"/>
<path d="M4727 6890 c-64 -50 -50 -136 27 -171 53 -23 79 -50 70 -73 -13 -33 -63 -37 -126 -11 -15 6 -18 2 -18 -28 0 -35 1 -36 54 -47 44 -9 61 -8 88 3 107 45 103 164 -6 212 -58 25 -73 46 -50 66 15 12 71 14 105 4 16 -5 19 -1 19 23 0 36 -13 42 -84 42 -39 0 -61 -6 -79 -20z"/>
<path d="M5029 6887 c-103 -69 -107 -256 -6 -317 33 -21 66 -24 130 -14 35 6 37 8 37 45 l0 38 -32 -13 c-18 -7 -40 -11 -48 -9 -58 17 -80 51 -80 124 0 78 42 117 112 104 34 -6 36 -5 40 23 3 25 0 32 -16 36 -47 13 -104 6 -137 -17z"/>
<path d="M5750 6728 l0 -178 24 0 c57 0 56 -2 56 184 l0 171 -40 0 -40 0 0 -177z"/>
<path d="M5954 6894 c-81 -40 -66 -156 24 -185 45 -14 72 -36 72 -59 0 -40 -52 -52 -117 -25 -19 8 -37 15 -39 15 -2 0 -4 -17 -4 -39 0 -45 11 -51 105 -51 85 1 125 38 125 117 0 46 -32 82 -95 109 -44 18 -56 30 -48 50 7 18 45 25 83 14 37 -11 50 -2 50 36 0 16 -8 23 -31 28 -51 10 -92 7 -125 -10z"/>
<path d="M2975 6090 l-150 -5 0 -30 c0 -30 1 -30 58 -33 l58 -3 -6 -173 -6 -174 40 -4 41 -3 2 179 3 180 58 -3 57 -2 0 40 c0 23 -1 40 -2 39 -2 -1 -70 -5 -153 -8z"/>
<path d="M3195 5991 c-28 -12 -62 -51 -74 -84 -18 -46 -13 -126 9 -173 48 -99 204 -98 246 1 31 75 10 189 -44 238 -22 20 -107 31 -137 18z m99 -80 c10 -11 19 -42 22 -72 7 -81 -25 -129 -79 -115 -36 9 -50 39 -49 109 0 41 5 64 18 78 22 24 66 25 88 0z"/>
<path d="M3830 5981 c-45 -25 -70 -68 -77 -136 -8 -74 16 -137 63 -166 29 -17 46 -21 99 -17 73 4 80 9 89 57 5 29 4 32 -12 26 -43 -19 -90 -28 -113 -22 -26 7 -49 43 -49 77 0 18 7 19 92 17 l93 -2 -4 45 c-8 112 -93 169 -181 121z"/>
<path d="M3477 5918 c6 -88 -8 -150 -42 -176 -28 -22 -31 -40 -12 -66 10 -13 20 -16 41 -10 39 9 66 73 74 177 l7 82 38 3 38 3 -1 -123 c-1 -68 -1 -128 -1 -133 1 -6 17 -12 36 -13 l35 -3 0 150 c0 82 3 156 6 165 5 14 -8 16 -109 16 l-115 0 5 -72z"/>
<path d="M4077 5983 c-4 -3 -7 -105 -7 -225 l0 -218 40 0 40 0 0 65 c0 62 1 65 19 55 11 -5 37 -10 58 -10 114 0 168 223 77 314 -34 33 -103 37 -134 6 l-20 -20 0 20 c0 16 -7 20 -33 20 -19 0 -37 -3 -40 -7z m173 -83 c20 -37 23 -104 7 -143 -14 -32 -20 -37 -49 -37 -19 0 -39 5 -46 12 -19 19 -16 147 5 170 22 24 69 24 83 -2z"/>
<path d="M4720 5985 c0 0 -1 -75 -3 -167 l-3 -168 41 0 41 0 -4 70 -4 70 58 0 59 0 -3 -70 -4 -70 41 0 41 0 0 165 0 165 -40 0 -40 0 0 -64 0 -63 -52 1 -53 1 0 62 0 61 -37 4 c-21 2 -38 3 -38 3z"/>
<path d="M4433 5973 c-17 -3 -22 -10 -19 -26 3 -12 5 -30 5 -40 1 -16 3 -16 31 -2 58 30 110 15 110 -32 0 -17 -6 -23 -22 -23 -43 0 -96 -20 -122 -46 -20 -20 -26 -37 -26 -69 0 -77 76 -114 140 -67 26 20 27 20 38 1 17 -27 87 -27 102 0 14 27 13 29 -12 33 -22 3 -23 9 -29 113 -6 124 -10 138 -45 154 -24 11 -105 13 -151 4z"/>
<path d="M5020 5945 c0 -35 0 -35 46 -35 l46 0 -3 -130 c-3 -92 -1 -130 7 -130 6 0 25 -3 41 -6 l29 -6 -3 136 -3 136 45 0 c45 0 45 0 45 35 l0 35 -125 0 -125 0 0 -35z"/>
<path d="M5312 5810 l-2 -170 45 0 45 0 -7 75 -6 75 57 0 56 0 0 -76 0 -75 43 3 c36 3 42 6 41 26 0 12 -1 86 -2 165 l-2 143 -40 1 -40 1 0 -64 0 -64 -56 0 -56 0 4 65 4 65 -41 0 -40 0 -3 -170z"/>
<path d="M5660 5805 l0 -165 39 0 39 0 1 165 0 165 -39 0 -40 0 0 -165z"/>
<path d="M5870 5948 c-86 -58 -93 -208 -13 -278 33 -29 47 -33 108 -32 62 2 75 10 75 47 0 36 -8 43 -27 24 -20 -20 -84 -6 -106 22 -29 40 -33 107 -7 147 20 32 23 33 73 31 52 -3 52 -3 52 26 0 30 -1 30 -60 33 -50 2 -67 -1 -95 -20z"/>
<path d="M6079 5966 c-3 -3 -4 -19 -1 -36 4 -27 8 -30 43 -30 l39 0 -5 -133 -5 -133 45 -2 45 -2 0 135 0 134 42 3 c39 3 43 6 45 31 2 27 1 27 -61 27 -35 0 -90 3 -122 6 -32 3 -62 3 -65 0z"/>
<path d="M6370 5811 c0 -82 -3 -156 -6 -165 -5 -14 7 -16 91 -16 l98 0 33 36 c25 26 34 44 34 70 0 75 -43 114 -126 114 l-46 0 4 55 3 55 -42 0 -43 0 0 -149z"/>
<path d="M6780 5835 l0 -36 143 3 142 3 3 33 3 32 -145 0 -146 0 0 -35z"/>
<path d="M2049 5268 c-1 -57 -2 -131 -4 -165 l-2 -63 71 0 c39 0 87 -3 106 -6 34 -6 36 -8 32 -40 -4 -34 -4 -34 37 -34 l41 0 0 48 c0 61 -9 92 -26 92 -11 0 -14 27 -14 135 l0 135 -35 0 -35 0 0 -135 0 -135 -45 0 -45 0 0 135 0 135 -40 0 -40 0 -1 -102z"/>
<path d="M2415 5338 c-38 -29 -55 -76 -55 -148 0 -98 37 -148 117 -160 85 -13 122 9 123 74 0 14 -3 16 -12 8 -19 -15 -83 -25 -108 -17 -19 6 -50 57 -50 82 0 4 40 7 90 5 l90 -2 0 39 c0 52 -14 86 -46 116 -36 33 -109 35 -149 3z"/>
<path d="M2780 5350 c0 -22 82 -255 102 -289 l19 -34 -28 -29 c-16 -17 -36 -27 -48 -26 -16 2 -21 -3 -23 -31 l-3 -34 41 6 c45 6 83 34 106 80 15 29 112 296 121 335 5 20 2 22 -33 22 -38 0 -39 -1 -51 -47 -24 -102 -45 -165 -53 -156 -5 4 -24 53 -43 108 l-34 100 -36 3 c-23 2 -37 -1 -37 -8z"/>
<path d="M3170 5344 c-76 -31 -112 -145 -75 -240 22 -59 62 -84 132 -84 58 0 83 17 83 57 0 20 -3 24 -17 18 -46 -20 -82 -17 -107 9 -22 21 -26 34 -26 84 0 51 4 63 27 87 24 23 33 26 69 21 39 -5 42 -3 49 21 4 17 2 29 -7 34 -20 13 -89 10 -128 -7z"/>
<path d="M3398 5352 l-28 -3 -2 -140 c-1 -76 -2 -151 -2 -165 -1 -24 3 -26 49 -30 67 -5 138 13 164 40 12 13 24 39 28 59 5 32 1 40 -26 66 -27 25 -29 31 -16 39 9 5 19 27 22 49 4 33 1 44 -17 61 -22 21 -84 35 -125 30 -11 -2 -32 -4 -47 -6z"/>
<path d="M3664 5334 c3 -9 6 -83 6 -165 l0 -149 38 0 37 0 -3 165 -3 165 -41 0 c-32 0 -39 -3 -34 -16z"/>
<path d="M3847 5257 c-7 -100 -30 -177 -53 -177 -11 0 -14 -17 -14 -70 l0 -70 35 0 c34 0 35 1 35 40 l0 40 58 0 c31 0 74 -3 95 -7 37 -6 38 -7 35 -42 -3 -35 -2 -36 31 -36 l35 0 -1 70 c-1 56 -4 71 -17 73 -14 3 -16 22 -16 133 l0 129 -33 0 c-19 0 -68 3 -109 6 l-75 7 -6 -96z m149 -76 l1 -101 -59 0 c-53 0 -59 2 -53 17 6 18 19 78 30 145 6 37 20 47 60 43 18 -2 20 -10 21 -104z"/>
<path d="M4235 5343 c-58 -15 -89 -58 -100 -139 -17 -130 63 -220 176 -197 33 6 77 46 91 83 15 38 11 146 -8 185 -24 52 -97 83 -159 68z m71 -76 c23 -20 28 -34 32 -85 6 -89 -27 -132 -85 -111 -48 18 -58 165 -13 201 29 23 33 23 66 -5z"/>
<path d="M4518 5332 l-38 -3 0 -77 c0 -42 -3 -114 -7 -159 l-6 -83 32 0 31 0 1 113 c0 61 3 105 6 97 3 -8 19 -52 35 -97 25 -70 33 -83 52 -83 18 0 29 16 60 90 22 50 39 90 40 90 1 0 -1 -47 -2 -105 l-4 -105 47 0 c25 0 44 4 41 9 -4 5 -6 77 -7 160 l0 151 -42 0 -42 0 -35 -90 c-19 -50 -37 -90 -41 -90 -3 0 -20 37 -37 83 -18 45 -36 87 -40 92 -4 6 -24 9 -44 7z"/>
<path d="M4910 5236 c0 -104 -10 -142 -43 -168 -18 -14 -20 -19 -9 -42 14 -31 31 -33 64 -6 32 25 55 107 57 203 1 36 2 37 36 37 l35 0 0 -130 0 -130 38 0 37 0 2 165 2 165 -110 0 -109 0 0 -94z"/>
<path d="M5254 5311 c-43 -26 -68 -83 -68 -156 0 -109 45 -156 149 -159 70 -1 91 10 97 54 5 32 -1 37 -20 18 -6 -6 -34 -12 -61 -12 -58 -1 -77 13 -87 62 l-6 32 91 0 91 0 0 40 c0 113 -96 176 -186 121z"/>
<path d="M5500 5162 l0 -169 40 0 40 0 0 69 0 68 50 0 50 0 0 -70 0 -70 40 0 39 0 3 163 c2 89 2 163 2 165 -1 1 -19 4 -40 5 l-39 2 0 -62 0 -63 -52 0 -53 0 0 65 0 65 -40 0 -40 0 0 -168z"/>
<path d="M5830 5155 l0 -165 43 0 42 0 -3 70 -4 70 51 0 51 0 0 -70 0 -70 38 0 37 0 0 163 0 162 -37 3 -38 3 0 -60 c0 -66 4 -62 -67 -65 l-33 -1 0 63 0 62 -40 0 -40 0 0 -165z"/>
<path d="M6180 5281 c-41 -40 -43 -109 -5 -147 l25 -25 -24 -32 c-41 -55 -50 -78 -35 -88 8 -5 25 -8 39 -8 21 0 30 11 55 62 17 34 38 63 47 65 15 3 17 -5 15 -60 l-2 -63 43 -3 42 -3 2 140 c1 78 2 151 2 164 1 21 -3 22 -87 25 -86 3 -88 2 -117 -27z"/>
<path d="M6540 5276 c0 -35 1 -36 41 -36 l41 0 -4 -130 c-2 -72 0 -131 5 -133 5 -1 24 -1 43 1 l34 4 0 129 0 129 45 0 c44 0 45 0 45 34 l0 33 -125 2 -125 2 0 -35z"/>
<path d="M6894 5303 c-77 -15 -121 -170 -74 -262 54 -107 190 -106 246 1 20 38 18 145 -4 188 -31 63 -90 88 -168 73z m97 -94 c15 -38 16 -128 0 -156 -23 -44 -83 -37 -101 13 -13 34 -13 121 1 145 12 23 46 38 70 32 10 -3 23 -18 30 -34z"/>
<path d="M7140 5135 c0 -91 3 -165 8 -166 4 0 21 -2 39 -5 l32 -4 0 68 c0 37 0 97 0 135 l1 67 50 0 50 0 0 35 0 35 -90 0 -90 0 0 -165z"/>
<path d="M7415 5290 c-52 -21 -85 -86 -85 -168 0 -97 54 -155 146 -155 67 0 100 21 126 81 37 83 10 205 -52 237 -31 16 -102 19 -135 5z m78 -62 c36 -19 46 -40 47 -99 0 -42 -5 -63 -21 -83 -30 -38 -74 -34 -96 9 -31 61 -20 159 20 175 29 12 25 12 50 -2z"/>
<path d="M3353 4713 c-10 -3 -13 -46 -13 -163 l0 -158 164 -3 c90 -2 167 -7 171 -11 4 -3 7 -23 9 -45 2 -36 4 -38 38 -41 l35 -3 -5 73 c-3 47 -10 77 -19 83 -12 9 -14 36 -11 138 l4 127 -38 0 -38 0 0 -130 0 -130 -40 0 -40 0 0 130 0 130 -35 0 -35 0 -1 -87 c-2 -180 2 -168 -45 -171 l-41 -3 5 135 5 136 -29 -1 c-16 0 -35 -3 -41 -6z"/>
<path d="M3850 4674 c-84 -76 -77 -228 12 -284 49 -31 128 -24 168 15 37 35 54 94 47 157 -12 101 -59 148 -146 148 -33 0 -49 -7 -81 -36z m126 -45 c15 -16 19 -36 19 -89 0 -75 -19 -110 -60 -110 -41 0 -60 35 -60 109 0 36 6 76 13 89 16 29 62 29 88 1z"/>
<path d="M4324 4607 c-1 -92 -22 -156 -54 -164 -23 -6 -26 -31 -7 -57 16 -22 62 -13 82 18 16 24 31 88 39 164 7 67 10 72 46 69 l30 -2 0 -132 0 -133 40 0 40 0 0 160 0 160 -107 0 -108 0 -1 -83z"/>
<path d="M4620 4526 l0 -163 38 1 37 1 -1 73 c-2 61 1 72 15 72 10 0 22 -17 33 -48 10 -26 31 -61 48 -77 25 -24 39 -29 80 -29 27 0 61 6 75 14 82 44 98 212 26 284 -29 28 -37 31 -95 31 -54 0 -68 -4 -90 -24 -14 -14 -31 -39 -38 -58 -9 -25 -18 -33 -36 -33 -24 0 -24 2 -20 60 l4 60 -38 0 -38 0 0 -164z m285 89 c22 -21 25 -33 25 -94 0 -50 -4 -74 -16 -85 -16 -17 -51 -21 -70 -8 -39 26 -48 142 -13 186 26 32 43 33 74 1z"/>
<path d="M5097 4587 c-6 -103 -26 -167 -53 -167 -14 0 -16 -7 -10 -52 3 -29 6 -61 6 -70 0 -14 8 -18 35 -18 34 0 35 1 35 40 l0 40 59 0 c32 0 73 -3 90 -6 28 -6 31 -10 31 -45 0 -32 4 -39 19 -39 11 0 26 -3 35 -6 12 -5 15 6 15 70 0 69 -2 76 -20 76 -18 0 -19 8 -19 135 l0 135 -109 0 -108 0 -6 -93z m153 -71 l0 -104 -57 5 c-32 3 -59 6 -59 7 -1 0 6 33 16 71 11 39 19 82 19 98 1 25 4 27 41 27 l40 0 0 -104z"/>
<path d="M5410 4515 l0 -165 35 0 c30 0 37 5 54 38 11 20 36 62 55 92 l36 54 0 -92 0 -92 40 0 40 0 0 160 0 160 -35 0 c-19 0 -35 -3 -35 -7 0 -5 -25 -48 -56 -98 l-55 -90 3 103 3 102 -42 0 -43 0 0 -165z"/>
<path d="M5745 4671 c-3 -2 -5 -75 -5 -162 l0 -157 36 -4 c19 -2 38 0 40 4 3 5 4 36 3 71 l-3 62 53 3 52 3 -2 -73 -2 -73 41 -3 41 -3 -2 165 -2 166 -37 0 -38 0 0 -62 0 -63 -50 0 -50 -1 0 62 0 62 -35 4 c-20 2 -38 2 -40 -1z"/>
<path d="M6118 4658 c-23 -8 -28 -16 -28 -45 0 -30 3 -34 18 -28 66 28 73 29 90 19 9 -6 18 -23 20 -38 3 -21 -1 -26 -20 -26 -30 -1 -97 -32 -125 -59 -34 -32 -32 -94 3 -126 33 -31 91 -34 124 -7 23 18 24 18 42 0 22 -22 46 -23 76 -2 28 19 28 37 0 49 -22 9 -23 15 -20 98 4 102 -8 141 -49 162 -32 17 -91 18 -131 3z"/>
<path d="M6470 4523 l0 -38 144 -3 143 -3 7 32 c3 17 6 34 6 38 0 3 -68 8 -150 9 l-150 4 0 -39z"/>
<path d="M3198 3984 c-4 -105 -4 -107 -35 -133 -24 -21 -29 -30 -22 -47 11 -30 23 -36 53 -25 36 14 54 56 67 160 l12 91 33 0 34 0 0 -129 0 -129 36 -4 c19 -2 36 -2 37 1 1 3 0 76 -3 161 l-5 155 -101 3 -102 3 -4 -107z"/>
<path d="M3490 3928 c0 -151 1 -158 20 -159 11 -1 26 -2 33 -3 6 -1 38 44 69 99 l58 100 0 -102 0 -103 35 0 35 0 0 123 c0 67 3 139 6 160 7 37 6 37 -27 37 -32 0 -37 -5 -89 -95 -30 -52 -57 -95 -60 -95 -3 0 -4 42 -2 94 l3 94 -40 4 -41 4 0 -158z"/>
<path d="M3820 3921 l0 -159 48 -4 c26 -2 113 -5 195 -7 l147 -2 0 165 0 166 -40 0 -39 0 -3 -132 -3 -133 -39 0 -38 0 1 128 c2 116 0 127 -16 127 -10 0 -28 3 -40 6 -23 6 -23 6 -23 -125 l0 -131 -38 0 -38 0 4 130 3 130 -40 0 -41 0 0 -159z"/>
<path d="M4338 4054 c-90 -48 -93 -250 -5 -305 25 -16 45 -19 90 -16 65 4 72 9 82 56 7 31 5 33 -11 26 -11 -5 -39 -10 -64 -13 -52 -4 -76 14 -86 66 l-6 32 63 -1 c131 -2 123 -6 116 51 -10 79 -51 120 -120 120 -18 -1 -44 -8 -59 -16z"/>
<path d="M4769 3968 c0 -97 -15 -149 -46 -163 -46 -20 -18 -83 31 -71 44 11 65 64 82 209 5 46 6 47 41 47 l36 0 -5 -130 -6 -130 42 0 41 0 2 160 2 160 -110 0 -109 0 -1 -82z"/>
<path d="M5063 3886 l-1 -163 36 1 37 1 3 68 c2 57 6 67 21 67 13 0 21 -10 25 -35 19 -99 133 -144 216 -85 58 41 77 156 40 238 -24 53 -71 76 -143 69 -57 -5 -92 -34 -109 -88 -6 -22 -18 -39 -29 -42 -17 -5 -19 1 -19 64 l0 69 -37 0 -38 0 -2 -164z m304 74 c18 -36 16 -131 -3 -158 -19 -28 -65 -29 -89 -2 -26 29 -32 118 -11 159 15 29 21 32 54 29 27 -2 40 -9 49 -28z"/>
<path d="M5547 3957 c-7 -91 -32 -176 -53 -184 -10 -4 -14 -25 -14 -74 l0 -69 35 0 c34 0 35 1 35 40 l0 40 90 0 90 0 0 -45 c0 -45 0 -45 35 -45 l35 0 0 70 c0 58 -3 72 -17 78 -16 6 -18 23 -18 137 l-1 130 -105 3 -106 3 -6 -84z m143 -82 l0 -105 -55 0 c-30 0 -55 3 -55 8 0 4 7 32 15 62 8 30 15 71 15 91 0 44 5 49 47 49 l33 0 0 -105z"/>
<path d="M5855 3870 l0 -161 34 3 c30 3 38 11 85 90 28 48 53 87 56 88 3 0 4 -43 2 -96 l-3 -95 37 3 38 3 1 163 1 162 -27 0 c-23 0 -34 -13 -88 -102 l-61 -103 0 103 0 102 -37 0 -38 0 0 -160z"/>
<path d="M6185 3865 l0 -165 38 0 37 0 0 70 0 70 50 0 50 0 0 -70 c0 -67 1 -70 24 -70 13 0 31 -3 40 -6 13 -5 15 16 18 160 l3 166 -36 0 c-32 0 -37 -4 -42 -27 -3 -15 -3 -42 0 -60 l6 -33 -57 0 -57 0 2 63 3 62 -40 3 -40 3 1 -166z"/>
<path d="M6537 4013 c-14 -4 -17 -13 -15 -41 2 -27 7 -36 18 -33 8 2 32 8 53 13 45 13 67 -1 67 -43 0 -26 -4 -29 -30 -29 -44 0 -93 -23 -119 -56 -50 -63 2 -163 77 -150 19 3 44 14 56 25 21 20 22 20 34 1 17 -27 77 -28 92 -1 15 28 12 39 -7 37 -16 -1 -19 13 -23 117 -5 115 -6 120 -33 143 -24 20 -38 24 -90 23 -34 -1 -70 -3 -80 -6z"/>
<path d="M3660 3136 l0 -176 36 0 35 0 -2 77 c-1 42 2 78 7 80 6 2 32 -33 58 -78 27 -44 54 -83 61 -85 7 -3 27 -4 44 -2 l31 3 -64 100 -64 100 29 35 c16 19 43 52 60 73 l31 37 -39 0 c-44 0 -70 -22 -116 -97 -15 -23 -30 -44 -34 -46 -4 -3 -8 29 -8 71 l0 77 -32 3 -33 3 0 -175z"/>
<path d="M4400 3136 c0 -199 5 -216 61 -200 36 10 56 48 22 42 -17 -3 -18 8 -20 161 l-2 164 -30 2 -31 3 0 -172z"/>
<path d="M4677 3283 c-3 -3 -6 -84 -6 -179 l-1 -174 35 0 35 0 0 63 0 63 34 -4 c19 -2 47 3 65 12 81 42 81 178 -1 205 -39 13 -153 23 -161 14z"/>
<path d="M3988 3204 c-12 -4 -18 -15 -18 -35 0 -32 6 -35 34 -14 37 28 86 13 86 -27 0 -13 -11 -19 -42 -24 -57 -10 -101 -51 -101 -94 0 -58 71 -91 119 -55 25 19 34 19 34 0 0 -25 67 -20 81 7 9 18 9 20 -4 15 -22 -8 -27 13 -27 103 0 102 -14 122 -91 126 -30 1 -62 0 -71 -2z"/>
<path d="M4220 3076 l0 -136 30 0 30 0 0 78 c0 87 16 122 54 122 20 0 25 6 28 35 4 31 1 35 -19 35 -13 0 -32 -9 -43 -20 -25 -25 -32 -25 -28 -2 2 12 -5 18 -24 20 l-28 3 0 -135z"/>
<path d="M5003 3189 c-88 -25 -112 -189 -36 -249 30 -23 94 -27 133 -7 32 16 60 72 60 120 0 99 -70 160 -157 136z m67 -59 c23 -23 28 -116 8 -142 -37 -45 -87 -18 -95 53 -10 86 40 136 87 89z"/>
<path d="M5290 3170 c-16 -16 -20 -17 -20 -5 0 10 -10 15 -28 15 l-29 0 -7 -177 c-7 -188 -6 -193 42 -193 20 0 22 4 22 59 l0 59 30 -14 c37 -19 58 -13 96 27 25 26 29 39 32 103 4 71 3 73 -31 109 -39 42 -76 48 -107 17z m64 -62 c18 -25 21 -100 6 -129 -12 -22 -59 -26 -78 -7 -18 18 -15 123 4 142 22 22 50 20 68 -6z"/>
<path d="M5490 3115 c0 -34 -3 -117 -7 -183 l-6 -122 36 0 37 0 0 54 0 54 29 -14 c67 -34 132 38 133 148 0 98 -74 159 -139 113 -17 -12 -22 -12 -26 -1 -3 7 -17 14 -31 14 -25 0 -26 -3 -26 -63z"/>
<path d="M5804 3155 c-71 -49 -71 -202 -1 -248 31 -20 106 -23 129 -4 8 6 18 22 21 35 4 19 2 22 -11 17 -36 -15 -87 -16 -103 -3 -9 7 -19 25 -23 41 l-6 27 74 0 c59 0 75 3 80 16 10 27 -13 92 -41 113 -30 25 -89 28 -119 6z"/>
<path d="M6018 3065 c-4 -186 -7 -168 30 -172 l32 -4 0 84 c0 93 12 120 52 120 25 0 37 18 38 55 0 22 -48 13 -69 -14 l-21 -27 0 27 c0 22 -4 26 -30 26 l-30 0 -2 -95z"/>
<path d="M3640 2635 c0 -128 1 -135 20 -135 18 0 20 7 20 75 0 72 1 75 25 81 14 4 29 4 32 0 4 -3 7 -41 8 -83 2 -63 5 -77 19 -79 15 -2 16 8 14 88 -3 105 -15 121 -68 101 l-30 -11 0 49 c0 42 -3 49 -20 49 -19 0 -20 -7 -20 -135z"/>
<path d="M4188 2615 c-3 -134 -3 -135 20 -135 21 0 22 4 22 70 0 66 2 71 26 82 37 17 46 -3 40 -89 -5 -68 -4 -73 14 -73 18 0 20 7 20 88 0 55 -4 92 -12 100 -15 15 -61 15 -76 0 -9 -9 -12 0 -12 40 0 45 -3 52 -19 52 -19 0 -20 -9 -23 -135z"/>
<path d="M2459 2710 c-24 -24 -29 -37 -29 -80 0 -64 30 -100 85 -100 29 0 39 6 55 33 24 38 26 87 5 127 -9 17 -17 30 -18 30 -1 0 -17 4 -36 10 -30 8 -36 6 -62 -20z"/>
<path d="M4515 2616 l0 -125 39 -15 c32 -13 44 -13 65 -3 49 23 66 99 35 158 -14 28 -19 31 -55 27 l-39 -4 0 43 c0 38 -3 43 -22 43 -23 0 -23 -2 -23 -124z"/>
<path d="M2877 2702 c-39 -42 -41 -132 -5 -168 26 -26 118 -17 118 11 0 10 -11 12 -42 8 -33 -5 -44 -2 -55 12 -25 36 -16 45 42 45 49 0 55 2 55 20 0 70 -73 116 -113 72z"/>
<path d="M5410 2580 c0 -132 1 -140 20 -140 17 0 19 8 22 71 3 75 17 99 52 86 13 -5 16 -22 16 -87 0 -73 2 -80 20 -80 18 0 20 7 20 83 0 53 -5 90 -13 101 -14 19 -51 24 -79 12 -16 -7 -18 -2 -18 43 0 44 -3 51 -20 51 -19 0 -20 -7 -20 -140z"/>
<path d="M3265 2685 c-43 -42 -30 -150 20 -173 29 -13 79 -1 83 21 3 13 -3 15 -34 10 -29 -5 -40 -2 -50 12 -26 36 -17 45 41 45 55 0 55 0 55 30 0 36 -39 80 -70 80 -11 0 -32 -11 -45 -25z"/>
<path d="M6160 2560 c0 -133 1 -140 20 -140 18 0 20 7 20 75 0 65 3 76 21 86 12 6 25 7 30 2 4 -4 9 -44 11 -88 2 -63 6 -80 18 -80 23 0 27 166 5 189 -19 19 -56 21 -73 4 -9 -9 -12 0 -12 40 0 45 -3 52 -20 52 -19 0 -20 -7 -20 -140z"/>
<path d="M5972 2560 c-2 -124 -1 -130 18 -130 17 0 20 7 20 50 l0 50 35 0 c48 0 85 37 85 84 0 49 -36 76 -104 76 l-51 0 -3 -130z"/>
<path d="M7210 2530 c0 -133 1 -140 20 -140 18 0 20 7 20 64 0 68 17 100 49 94 13 -3 16 -18 17 -78 1 -68 3 -75 23 -78 20 -3 21 1 21 82 0 64 -4 88 -16 100 -17 18 -60 21 -69 6 -14 -22 -20 -7 -17 40 4 48 3 50 -22 50 l-26 0 0 -140z"/>
<path d="M5643 2629 c-34 -12 -53 -49 -53 -102 0 -66 32 -99 93 -95 31 2 43 8 45 21 3 16 -1 17 -31 12 -28 -6 -39 -3 -56 14 -38 38 -28 51 37 51 l59 0 -5 33 c-8 54 -45 82 -89 66z"/>
<path d="M6543 2595 c-48 -34 -50 -150 -3 -175 36 -20 87 -12 109 16 36 45 23 134 -23 166 -18 13 -60 9 -83 -7z"/>
<path d="M6856 2578 c-24 -34 -21 -119 5 -152 25 -32 75 -35 109 -8 34 28 40 117 10 155 -29 36 -100 39 -124 5z"/>
<path d="M7030 2483 c0 -65 -3 -129 -7 -141 -5 -21 -3 -23 18 -20 20 2 24 9 27 44 3 42 3 42 32 31 37 -14 65 9 80 65 23 83 -25 157 -85 130 -15 -7 -25 -8 -25 -2 0 6 -9 10 -20 10 -19 0 -20 -7 -20 -117z"/>
<path d="M7533 1528 c-27 -13 -29 -30 -7 -52 9 -9 11 -16 4 -16 -6 0 -8 -5 -5 -10 4 -6 11 -7 17 -4 7 5 8 2 3 -5 -4 -7 3 -23 16 -38 l24 -25 -31 18 c-18 10 -30 24 -27 31 6 16 -19 17 -34 2 -16 -16 -54 11 -47 33 3 10 0 18 -6 18 -6 0 -8 -4 -5 -10 3 -5 2 -10 -3 -10 -5 0 -15 11 -22 25 -16 30 -27 32 -35 4 -7 -20 -20 -18 -20 4 0 7 -12 12 -27 13 -16 1 -28 -4 -28 -12 0 -7 8 -10 20 -7 11 3 20 0 20 -6 0 -6 -10 -11 -22 -11 -13 0 -43 -16 -67 -35 -25 -20 -50 -33 -58 -31 -7 3 -15 1 -18 -4 -4 -6 -11 -10 -16 -10 -6 0 -7 5 -3 11 4 7 2 10 -5 8 -20 -7 -13 -24 10 -24 27 -1 45 -31 28 -51 -10 -12 -13 -12 -25 3 -13 17 -15 17 -27 1 -14 -17 -32 -19 -55 -4 -7 4 -16 5 -20 1 -10 -10 20 -24 68 -31 84 -11 84 -11 57 -47 -56 -74 -69 -115 -72 -237 -2 -47 -8 -98 -14 -113 -17 -43 -14 -127 5 -148 13 -15 14 -21 3 -41 -13 -23 -15 -29 -18 -48 0 -5 -10 -10 -21 -10 -11 0 -20 -4 -20 -10 0 -5 7 -7 15 -4 10 4 15 0 15 -11 0 -25 -32 -14 -47 15 -7 14 -13 19 -13 13 0 -7 -8 -13 -17 -13 -14 0 -15 2 -4 9 22 14 -17 31 -47 20 -16 -6 -29 -6 -38 2 -9 7 -18 7 -31 0 -15 -8 -15 -10 -2 -11 8 0 24 -7 35 -16 10 -8 13 -13 7 -9 -23 11 -14 -14 9 -26 18 -10 20 -9 15 5 -4 9 -2 16 3 16 6 0 10 -7 10 -16 0 -11 6 -14 20 -9 16 5 20 2 20 -14 0 -12 5 -21 11 -21 5 0 7 4 4 10 -9 14 8 13 23 -2 7 -7 12 -9 12 -5 0 12 42 -34 44 -48 1 -7 7 -19 13 -27 6 -7 14 -33 18 -58 6 -51 13 -85 15 -85 1 0 3 -11 6 -24 2 -14 9 -30 15 -37 8 -10 5 -15 -15 -20 -14 -3 -33 -3 -42 0 -10 4 -14 1 -12 -6 3 -7 20 -16 39 -21 19 -5 40 -14 48 -20 7 -7 37 -24 65 -38 37 -19 50 -31 48 -44 -3 -12 1 -16 12 -12 11 4 13 1 9 -10 -4 -10 -2 -14 5 -9 6 3 13 2 17 -4 3 -5 -3 -10 -14 -10 -12 0 -21 4 -21 10 0 5 -6 7 -14 4 -9 -3 -20 3 -28 15 -7 12 -19 21 -26 21 -7 0 -10 4 -7 10 4 6 16 4 31 -6 13 -9 24 -12 24 -6 0 5 -19 18 -42 28 -53 22 -51 21 -93 23 -25 1 -33 5 -29 15 6 16 -24 36 -44 29 -7 -3 -24 2 -37 11 -21 14 -24 14 -19 1 5 -11 2 -13 -9 -9 -9 3 -14 11 -11 19 3 7 -4 15 -15 18 -12 3 -21 1 -21 -4 0 -5 5 -9 10 -9 6 0 10 -4 10 -8 0 -13 -68 -1 -81 14 -13 16 -43 19 -34 4 4 -6 11 -8 16 -5 5 4 9 1 9 -4 0 -14 -6 -14 -31 0 -16 8 -25 7 -40 -7 -11 -10 -18 -23 -15 -29 5 -14 -79 -14 -91 0 -4 4 -3 5 4 1 6 -3 14 -2 18 4 4 7 12 7 25 0 14 -8 21 -5 34 15 15 23 15 25 -2 34 -11 6 -24 6 -33 0 -11 -7 -9 -9 8 -9 16 0 21 -5 17 -15 -5 -13 -10 -13 -36 1 -24 12 -28 18 -17 25 8 5 10 9 4 9 -5 0 -17 -4 -25 -10 -20 -12 -47 9 -28 22 10 7 10 8 -2 7 -29 -3 -41 1 -35 11 3 6 -5 14 -20 20 -14 5 -28 17 -31 25 -6 14 -8 13 -21 -2 -8 -10 -11 -12 -8 -5 5 9 1 12 -11 10 -12 -2 -18 2 -16 12 2 11 -2 10 -12 -4 -10 -12 -23 -17 -36 -13 -14 3 -20 0 -20 -11 0 -8 3 -13 6 -9 3 3 16 -4 29 -16 16 -16 20 -27 13 -39 -15 -31 -43 -39 -94 -28 -26 6 -54 8 -63 4 -9 -4 -25 -8 -35 -10 -17 -1 -18 0 -4 10 13 9 13 13 2 24 -9 8 -14 9 -14 2 0 -7 -21 -10 -60 -8 -40 2 -60 7 -60 15 0 20 -20 15 -22 -4 0 -10 -2 -25 -2 -33 -1 -11 -13 -15 -49 -13 -26 1 -47 -2 -47 -6 0 -10 214 -31 224 -21 8 8 36 2 46 -10 8 -11 221 -44 275 -43 28 0 62 -5 77 -13 34 -17 205 -29 222 -15 8 7 27 6 61 -4 86 -26 73 -10 -18 21 -17 6 -20 26 -4 25 4 -1 24 -2 45 -2 l37 -2 -35 -7 -35 -7 30 -12 c16 -7 40 -10 52 -8 24 4 32 -8 11 -16 -7 -3 13 -6 44 -6 33 -1 90 -12 135 -27 133 -45 214 -19 373 117 60 51 143 179 155 239 4 19 20 58 36 86 16 28 29 61 29 72 0 12 5 24 11 28 6 3 9 19 5 35 -3 15 -2 29 2 31 11 5 54 116 50 129 -2 7 -10 -7 -16 -30 -7 -22 -17 -41 -23 -41 -6 0 -8 -4 -5 -8 3 -5 -2 -21 -9 -36 -8 -16 -12 -32 -9 -37 9 -15 -6 -49 -22 -49 -8 0 -14 -5 -14 -11 0 -5 4 -8 9 -4 15 8 -6 -55 -24 -75 -8 -9 -15 -22 -15 -28 0 -6 -5 -14 -11 -18 -8 -5 -10 1 -7 19 3 15 1 24 -3 21 -5 -3 -9 -15 -9 -27 -1 -20 -2 -20 -11 -5 -7 13 -4 25 12 47 18 25 20 33 9 46 -18 21 -37 19 -43 -6 -3 -12 -10 -18 -15 -15 -6 3 -8 15 -5 26 3 12 0 20 -6 20 -7 0 -9 -4 -6 -10 3 -5 2 -10 -4 -10 -18 0 -41 12 -41 22 0 5 4 6 10 3 6 -4 7 1 3 11 -5 14 -8 13 -19 -7 -7 -13 -13 -18 -14 -11 0 6 -5 12 -11 12 -17 0 1 -21 27 -30 27 -11 31 -25 10 -33 -10 -4 -13 -1 -9 9 4 10 0 12 -10 8 -9 -3 -18 -13 -20 -22 -4 -15 -5 -15 -6 -1 -1 18 -41 34 -41 16 0 -6 -3 -7 -6 -4 -4 4 -1 13 6 21 6 9 10 21 7 28 -4 8 -6 7 -6 -4 -1 -10 -6 -18 -12 -18 -5 0 -8 4 -4 9 3 5 1 12 -5 16 -5 3 -10 -2 -11 -12 0 -11 -3 -13 -6 -5 -2 6 -10 10 -16 6 -7 -3 -3 2 7 10 11 9 31 16 45 16 20 0 30 9 44 36 9 19 13 33 7 29 -12 -8 -13 5 -1 24 12 18 -52 86 -70 75 -7 -4 -9 -3 -5 4 3 5 0 13 -6 16 -7 2 -2 3 11 2 14 -2 27 -8 29 -14 2 -7 9 -9 14 -6 7 5 8 2 3 -6 -5 -9 -2 -10 15 -5 19 6 21 4 15 -14 -5 -17 -2 -21 14 -21 12 0 21 5 21 11 0 5 -4 8 -8 5 -4 -2 -7 7 -6 22 2 41 3 44 14 37 6 -3 8 -16 6 -28 -3 -17 1 -23 15 -23 10 0 19 4 19 9 0 4 5 5 10 2 17 -11 11 -22 -12 -21 -11 0 -23 -6 -26 -14 -3 -8 -1 -12 3 -8 4 4 14 0 22 -10 13 -16 14 -15 8 5 -5 19 -3 22 12 16 24 -8 53 -34 53 -46 0 -5 -6 -4 -14 2 -10 9 -15 8 -19 -1 -3 -8 5 -14 19 -14 13 -1 24 1 25 5 6 50 5 52 -23 58 -16 3 -27 8 -24 11 9 9 -22 32 -36 27 -11 -4 -14 3 -12 32 1 21 0 32 -3 26 -7 -19 -40 -16 -47 3 -5 14 -4 15 9 4 13 -11 18 -9 33 7 9 11 27 23 40 27 12 4 22 12 22 17 0 5 9 9 20 9 11 0 20 -7 20 -15 0 -8 5 -15 10 -15 6 0 10 5 10 11 0 5 4 8 9 5 4 -3 15 0 24 7 14 11 14 13 -1 27 -14 13 -15 12 -9 -3 6 -17 -3 -23 -16 -11 -4 4 -20 8 -37 9 -21 2 -34 -3 -41 -16 -5 -11 -18 -19 -29 -19 -10 0 -22 -4 -25 -10 -3 -5 -11 -10 -17 -10 -6 0 2 12 18 27 16 15 28 31 27 35 -2 4 7 8 20 8 17 0 19 2 7 10 -9 6 -19 5 -29 -3 -11 -10 -13 -8 -7 11 4 12 3 22 -2 22 -18 0 -21 -29 -6 -45 13 -13 13 -15 1 -15 -8 0 -17 -7 -21 -15 -3 -8 -11 -15 -18 -15 -7 0 -19 -9 -26 -20 -10 -17 -10 -24 3 -44 11 -16 13 -26 6 -31 -10 -6 -13 -3 -15 20 -2 18 -33 55 -39 48 -4 -3 -7 -1 -7 5 0 15 13 15 28 0 9 -9 12 -9 12 0 0 6 -8 16 -17 22 -17 11 -17 11 0 6 11 -3 20 0 24 9 4 12 9 13 19 4 8 -6 15 -9 15 -5 5 24 4 33 -5 45 -8 11 -8 13 0 8 12 -7 37 37 27 47 -13 12 -30 5 -40 -16 -7 -16 -9 -9 -9 35 0 47 2 54 16 47 24 -13 68 -7 62 8 -3 8 -13 11 -26 8 -12 -3 -28 -1 -36 4 -12 8 -9 10 12 10 29 0 81 47 71 63 -3 5 -10 3 -15 -4 -8 -11 -9 -11 -5 1 2 10 13 14 30 12 15 -2 27 1 27 7 0 6 -7 11 -16 11 -8 0 -12 5 -9 10 4 7 -2 9 -19 4 -20 -5 -26 -2 -26 11 0 9 -5 13 -10 10 -8 -5 -8 -11 -1 -19 6 -7 7 -17 3 -21 -4 -5 -1 -5 7 0 9 5 12 4 7 -3 -13 -21 -24 -13 -34 26 -5 20 -10 29 -11 20 -1 -23 -5 -23 -35 6 -15 16 -20 27 -13 30 8 3 7 8 -3 15 -10 7 -11 11 -2 11 6 0 12 8 12 18 0 14 2 15 10 2 8 -12 10 -12 10 -1 0 8 3 11 7 7 5 -4 0 -13 -10 -21 -16 -12 -16 -13 5 -18 13 -4 27 -1 33 5 7 8 5 9 -8 5 -15 -6 -17 -3 -12 12 3 11 1 22 -5 26 -6 3 -8 11 -5 16 4 5 2 9 -4 9 -5 0 -12 -6 -15 -12 -3 -7 -3 -2 0 12 8 32 10 34 28 27 8 -3 13 -14 12 -24 -2 -10 -1 -12 1 -5 6 16 18 15 33 -2 6 -8 18 -12 26 -9 22 8 16 22 -8 15 -18 -4 -20 -2 -16 16 4 12 2 22 -3 22 -15 0 -10 30 5 36 23 9 26 30 5 30 -11 0 -19 -4 -19 -9 0 -4 -5 -5 -10 -2 -6 4 -8 15 -5 26 5 14 2 19 -12 19 -13 0 -14 -3 -5 -8 9 -6 5 -16 -16 -38 -16 -16 -31 -37 -35 -46 -3 -10 -11 -18 -18 -18 -6 0 -9 6 -6 13 2 6 0 22 -4 35 -5 12 -5 22 0 22 5 0 9 11 9 25 0 14 -1 25 -2 24 0 0 -11 -5 -23 -11z"/>
<path d="M7790 1235 c-8 -15 -17 -22 -23 -16 -12 12 -75 -53 -73 -76 1 -22 35 -43 62 -38 10 2 24 4 29 5 6 0 2 7 -7 14 -10 7 -15 16 -11 19 10 11 25 8 18 -3 -3 -5 0 -10 9 -10 8 0 16 3 19 8 2 4 2 1 1 -5 -2 -7 0 -23 5 -35 6 -18 9 -19 14 -5 4 10 1 17 -6 17 -7 1 -5 6 5 14 13 10 15 15 6 24 -9 9 -8 12 5 12 9 0 17 7 17 16 0 8 -4 12 -10 9 -5 -3 -10 -2 -10 3 0 6 -12 13 -26 16 -21 6 -24 10 -14 19 10 9 14 9 17 0 3 -7 10 -13 16 -13 8 0 7 4 -1 12 -19 19 -14 30 9 18 11 -7 23 -9 27 -6 8 9 1 13 -34 20 -26 6 -32 3 -44 -19z"/>
<path d="M1190 942 c-7 -26 -14 -55 -17 -64 -2 -10 -8 -18 -13 -18 -4 0 -6 -9 -3 -20 3 -11 9 -20 14 -20 5 0 9 -4 9 -10 0 -5 -7 -7 -15 -4 -8 4 -15 12 -15 20 0 8 -4 14 -10 14 -5 0 -9 5 -7 12 1 7 -3 12 -10 13 -6 0 -15 4 -20 9 -4 5 -3 6 3 3 7 -4 17 0 24 8 7 8 19 15 27 15 8 0 11 5 8 10 -4 7 -12 7 -25 0 -24 -13 -53 -13 -45 0 3 6 4 10 0 10 -3 0 -10 -10 -15 -22 -7 -19 -9 -19 -9 -5 -1 10 -6 15 -12 12 -6 -4 -8 -14 -4 -24 4 -10 -2 -8 -15 7 -12 13 -25 21 -28 18 -3 -3 2 -14 11 -24 19 -20 24 -43 6 -25 -6 6 -19 8 -30 6 -19 -5 -19 -7 -3 -24 16 -18 16 -19 -4 -19 -14 0 -22 7 -24 22 -2 12 -9 23 -17 26 -8 3 -11 0 -7 -7 5 -7 1 -8 -10 -4 -10 4 -13 8 -6 11 8 2 8 11 1 29 -5 13 -7 28 -4 33 3 5 0 12 -6 16 -8 4 -9 3 -5 -4 4 -7 5 -12 1 -12 -3 0 -10 12 -15 26 -15 37 -37 16 -34 -33 4 -75 66 -173 108 -173 8 0 18 -5 21 -10 4 -6 11 -7 17 -4 7 5 5 12 -6 20 -10 7 -15 17 -12 23 5 7 -3 9 -22 5 -35 -7 -66 20 -32 29 11 3 20 1 20 -4 0 -5 10 -8 23 -6 14 1 22 -3 22 -13 1 -24 15 -40 35 -40 10 0 22 -5 26 -11 4 -7 0 -9 -12 -5 -11 3 -25 2 -32 -3 -10 -6 -4 -10 20 -16 18 -4 27 -9 20 -12 -7 -3 -31 5 -55 17 l-42 22 25 -24 c42 -41 211 -92 285 -87 35 3 266 -10 274 -15 4 -3 38 -6 77 -7 38 -1 109 -6 158 -11 61 -7 92 -6 99 1 6 6 16 11 21 11 6 0 4 -5 -4 -10 -10 -7 38 -10 145 -11 88 0 179 -3 203 -5 43 -4 55 9 31 33 -8 8 -6 11 6 10 10 -1 20 4 22 11 4 9 -2 11 -20 7 -27 -7 -48 16 -46 52 0 16 1 16 9 -2 5 -11 9 -15 10 -10 0 6 7 2 15 -9 13 -18 14 -18 12 2 0 12 -3 19 -6 17 -2 -3 -12 2 -22 11 -20 18 -43 10 -35 -12 3 -8 1 -14 -4 -14 -6 0 -10 9 -10 20 0 11 6 20 12 20 7 0 4 9 -8 20 -17 18 -25 19 -48 10 -24 -9 -27 -8 -23 4 4 10 1 13 -9 9 -9 -3 -11 -9 -5 -17 5 -6 9 -14 8 -18 -1 -3 1 -10 6 -14 4 -4 7 0 7 9 0 10 4 17 9 17 5 0 18 3 28 6 15 5 14 2 -4 -14 -17 -15 -19 -22 -10 -32 10 -10 9 -12 -4 -7 -13 4 -15 1 -12 -14 6 -23 1 -24 -37 -4 -17 9 -33 15 -37 15 -5 0 -9 9 -9 20 -1 11 -4 23 -7 26 -9 9 -28 -6 -22 -17 4 -5 -4 -9 -17 -9 -13 0 -29 -5 -35 -11 -9 -9 -15 -8 -26 2 -12 12 -12 17 0 27 7 8 13 8 13 2 0 -17 14 -11 29 13 13 20 13 21 -3 8 -9 -8 -19 -11 -23 -8 -3 4 -21 -3 -40 -14 -26 -16 -37 -19 -46 -10 -6 6 -19 11 -28 11 -9 0 -19 7 -23 15 -8 21 4 46 17 38 19 -12 47 -10 58 3 7 8 7 14 -1 19 -5 3 -10 1 -10 -6 0 -8 -10 -9 -31 -5 -18 3 -37 1 -44 -4 -9 -8 -14 -6 -18 4 -4 9 2 16 15 19 11 3 17 10 13 16 -3 6 1 11 10 11 9 0 14 -4 10 -9 -3 -5 0 -13 7 -17 7 -4 10 -4 6 1 -4 4 -1 13 8 19 12 10 9 12 -18 11 -21 0 -32 -5 -30 -12 1 -7 -4 -13 -12 -13 -8 0 -21 -9 -29 -21 -9 -13 -17 -16 -22 -10 -3 6 -14 11 -23 10 -11 0 -9 -4 8 -11 24 -10 24 -10 5 -18 -24 -9 -33 -2 -38 27 -5 34 -19 42 -15 8 2 -23 -2 -32 -22 -42 -22 -11 -15 -19 13 -14 4 0 7 -3 7 -9 0 -5 5 -10 11 -10 5 0 7 5 3 11 -4 7 0 9 13 5 14 -4 29 2 47 19 14 14 24 22 21 18 -2 -3 3 -11 12 -18 14 -11 11 -13 -21 -19 -20 -4 -34 -11 -31 -15 7 -13 -19 -21 -44 -14 -19 5 -21 2 -17 -22 4 -23 3 -25 -10 -14 -9 7 -13 21 -10 31 2 11 -2 22 -10 25 -8 3 -13 11 -10 19 3 7 -7 20 -21 29 -17 12 -22 20 -14 24 9 6 8 11 -4 21 -8 7 -18 10 -22 7 -3 -4 -12 -2 -20 4 -10 9 -13 8 -13 0 0 -7 -5 -9 -10 -6 -7 4 -9 -5 -5 -25 4 -20 2 -29 -5 -25 -5 3 -10 14 -10 23 0 12 -3 13 -12 4 -7 -7 -23 -12 -35 -12 -21 0 -22 -2 -13 -21 7 -11 9 -23 7 -26 -3 -2 -8 5 -12 16 -4 13 -11 18 -18 14 -7 -4 -6 1 2 10 12 15 11 17 -3 17 -11 0 -16 9 -16 26 0 23 -3 26 -27 20 -16 -3 -23 -3 -16 0 7 3 10 11 7 18 -5 14 -54 10 -54 -5 0 -5 -6 -6 -14 -3 -8 3 -12 13 -9 22 4 15 3 15 -6 2 -15 -21 -14 -25 13 -38 19 -8 26 -8 29 1 2 7 8 8 13 4 5 -4 2 -12 -5 -16 -7 -5 -11 -13 -7 -19 4 -7 -5 -9 -24 -6 -18 3 -30 1 -30 -6 0 -6 -4 -9 -9 -6 -5 3 -7 15 -4 26 4 14 0 20 -10 20 -9 0 -19 9 -22 20 -3 11 -11 20 -16 20 -6 0 -7 -5 -3 -11 4 -7 -1 -9 -12 -7 -11 2 -18 10 -16 17 1 7 -2 10 -8 6 -6 -3 -7 -18 -3 -33 6 -25 5 -25 -10 -11 -21 22 -11 59 17 60 17 1 17 2 4 6 -10 2 -18 8 -18 13 0 5 6 7 14 4 10 -4 12 2 9 21 -9 42 -20 38 -33 -13z"/>
<path d="M2330 836 c0 -2 5 -17 10 -31 9 -24 8 -26 -11 -20 -15 5 -19 4 -15 -4 4 -6 13 -11 19 -11 7 0 21 -12 31 -27 15 -20 17 -30 8 -44 -8 -13 -8 -19 1 -22 7 -2 9 -8 5 -12 -12 -12 -30 6 -25 26 3 11 1 17 -4 13 -5 -3 -9 -12 -9 -21 0 -13 -3 -13 -15 -3 -9 7 -18 10 -22 6 -3 -3 -2 -6 3 -6 15 0 16 -53 2 -63 -8 -5 2 -7 27 -4 l40 5 -37 -11 c-21 -6 -38 -13 -38 -17 0 -4 100 -12 223 -19 122 -6 245 -14 272 -16 28 -2 88 -7 135 -11 47 -4 146 -8 221 -9 75 -1 142 -6 148 -10 7 -4 45 -9 86 -11 70 -3 73 -2 72 19 0 12 3 31 7 42 6 15 5 17 -2 6 -9 -12 -15 -13 -36 -3 -14 6 -26 17 -26 24 0 10 3 10 9 -1 12 -19 28 -7 34 26 4 23 3 25 -6 12 -7 -9 -22 -19 -33 -23 -16 -5 -20 -12 -16 -31 2 -14 9 -22 15 -18 6 3 7 1 3 -5 -4 -7 -18 -12 -32 -12 -13 0 -33 -6 -44 -12 -15 -10 -23 -10 -28 -2 -10 16 -72 29 -72 15 0 -6 -5 -11 -11 -11 -8 0 -8 4 0 14 9 10 9 16 1 21 -7 4 -14 -2 -17 -14 -3 -12 -10 -21 -15 -21 -5 0 -6 6 -2 13 5 8 2 7 -9 -2 -10 -8 -21 -11 -24 -7 -4 4 -1 12 7 17 11 8 8 9 -12 5 -17 -4 -32 -1 -42 9 -8 9 -22 12 -32 8 -10 -4 -15 -2 -11 3 3 5 -3 10 -13 10 -10 0 -16 -6 -13 -12 2 -7 15 -11 27 -10 13 2 34 -5 47 -15 13 -10 19 -19 13 -19 -6 0 -13 3 -17 6 -3 3 -45 7 -94 8 -77 1 -91 4 -111 24 -24 24 -18 27 22 12 15 -5 26 -6 26 0 0 5 -9 12 -20 15 -11 3 -20 13 -20 20 0 9 -6 12 -17 8 -9 -4 -14 -2 -10 3 3 6 -9 10 -29 10 -19 0 -34 -4 -34 -9 0 -4 4 -6 9 -2 18 11 24 -18 7 -31 -10 -7 -15 -18 -11 -24 5 -8 13 0 23 21 9 17 18 27 20 20 2 -6 9 -8 15 -5 8 5 8 2 0 -7 -18 -18 -16 -27 5 -33 9 -3 5 -4 -10 -2 -16 2 -28 -1 -28 -6 0 -5 -10 -6 -22 -2 -13 4 -35 7 -51 6 -16 0 -25 3 -21 9 3 6 17 8 30 5 25 -7 34 8 12 18 -10 5 -10 7 0 12 6 3 12 10 12 16 0 6 -8 4 -18 -5 -21 -19 -57 -22 -67 -7 -4 6 -12 4 -21 -5 -9 -8 -20 -13 -25 -10 -5 4 -9 2 -9 -4 0 -5 8 -12 18 -14 13 -4 12 -5 -4 -6 -12 0 -25 6 -28 15 -9 22 -8 24 10 24 8 0 12 5 8 11 -3 6 -2 14 5 18 6 4 -5 7 -24 7 -19 0 -31 -2 -27 -5 17 -14 10 -31 -13 -31 -17 0 -25 6 -25 17 0 15 -2 14 -16 -3 -8 -10 -13 -13 -9 -6 4 7 1 20 -6 28 -10 12 -9 13 5 8 26 -10 18 10 -9 23 -14 6 -27 7 -31 2 -3 -5 0 -9 7 -9 17 0 -3 -21 -39 -42 -24 -15 -31 -15 -35 -4 -3 8 1 13 11 12 9 0 18 7 20 17 2 9 -2 17 -8 17 -6 0 -9 -4 -6 -9 6 -10 -59 -20 -72 -12 -15 10 -22 40 -9 35 7 -2 20 10 30 28 15 26 15 29 2 18 -14 -12 -18 -11 -26 1 -5 8 -7 20 -4 28 4 9 -1 12 -15 8 -26 -7 -26 10 0 18 23 7 26 21 6 28 -10 4 -13 1 -10 -7 3 -7 -2 -13 -11 -13 -8 0 -14 7 -13 15 2 8 -3 17 -9 19 -7 3 -13 2 -13 -1z"/>
<path d="M3754 628 c-4 -6 -3 -8 3 -5 5 3 21 -15 35 -41 22 -41 29 -46 62 -49 21 -1 34 2 31 8 -10 15 19 6 32 -11 18 -22 16 -34 -2 -16 -9 8 -23 12 -31 9 -13 -5 -13 -7 -2 -14 9 -6 7 -9 -9 -9 -13 0 -22 5 -20 11 1 6 -7 13 -18 14 -11 2 -31 7 -44 11 -18 5 -23 4 -19 -7 3 -8 13 -14 23 -14 10 0 20 -6 22 -12 3 -7 0 -13 -7 -13 -6 0 -9 4 -6 8 2 4 -22 8 -55 7 -32 -1 -59 3 -59 8 0 5 -6 5 -13 -2 -10 -8 -17 -7 -26 2 -10 9 -11 8 -5 -6 5 -15 18 -18 68 -18 64 0 148 -4 254 -13 40 -4 62 -2 62 5 0 5 -4 8 -9 4 -5 -3 -18 6 -29 20 -11 14 -23 25 -27 25 -4 0 -2 -6 4 -14 9 -10 8 -15 -4 -19 -16 -7 -39 25 -27 38 4 5 1 5 -5 1 -7 -4 -13 -3 -13 2 0 16 31 23 46 11 20 -16 17 -1 -3 19 -11 12 -18 13 -20 5 -3 -8 -14 -6 -39 7 -19 11 -34 15 -34 10 0 -19 -17 -10 -29 16 -6 15 -14 24 -18 21 -3 -4 0 -14 7 -22 9 -11 10 -19 3 -26 -8 -8 -15 -4 -24 12 -7 13 -11 26 -10 29 6 10 -39 18 -45 8z"/>
<path d="M4117 566 c-5 -12 -15 -14 -39 -10 -31 6 -32 5 -14 -8 17 -14 15 -15 -30 -12 -27 2 -43 1 -36 -2 6 -3 10 -9 8 -13 -3 -4 5 -7 17 -7 12 1 21 -4 20 -11 -3 -13 35 -29 44 -19 4 3 -1 6 -10 6 -9 0 -17 4 -17 8 0 5 13 7 30 4 16 -2 27 -8 24 -13 -3 -5 0 -9 5 -9 6 0 11 6 11 13 0 9 2 9 9 -1 4 -7 21 -17 37 -22 27 -8 28 -8 4 -8 -14 0 -51 3 -82 7 -32 4 -58 4 -58 0 0 -3 30 -9 68 -12 91 -9 114 -9 108 2 -3 5 10 11 29 13 19 2 35 0 35 -4 0 -4 -12 -9 -27 -9 -34 -2 62 -15 172 -24 44 -4 83 -9 86 -10 3 -2 23 2 45 10 21 8 33 14 27 15 -7 0 -13 4 -13 8 0 10 84 7 101 -3 8 -5 10 -4 5 3 -4 7 -1 12 6 12 9 0 9 3 -2 10 -20 13 -43 13 -35 0 3 -5 1 -10 -5 -10 -7 0 -9 7 -6 16 3 9 6 17 6 18 0 2 11 1 25 -2 14 -2 25 0 25 4 0 5 -14 9 -30 10 -18 1 -30 -4 -30 -11 0 -30 -62 -22 -98 12 -16 16 -32 17 -32 3 0 -5 -10 -10 -22 -9 -22 0 -22 1 -3 10 14 7 9 8 -20 3 -22 -3 -44 -11 -48 -17 -6 -8 -7 -6 -3 5 3 10 1 20 -3 23 -12 7 -22 -21 -15 -42 5 -14 4 -15 -4 -4 -6 8 -19 12 -31 8 -12 -3 -24 -1 -27 4 -11 18 -21 8 -16 -16 2 -15 0 -25 -7 -25 -7 0 -9 5 -5 12 4 6 -1 17 -11 25 -17 12 -17 13 -2 13 9 0 17 4 17 10 0 5 7 7 15 4 8 -4 15 -1 15 5 0 6 -11 11 -25 11 -14 0 -25 5 -25 11 0 8 -4 8 -13 1 -9 -8 -20 -7 -39 2 -24 13 -26 12 -24 -9 2 -12 -3 -30 -11 -40 -7 -11 -13 -14 -13 -8 0 7 5 15 10 18 20 12 -2 25 -42 25 -35 0 -39 2 -28 15 7 9 11 18 8 21 -3 3 -8 -2 -11 -10z"/>
<path d="M5680 523 c6 -13 15 -23 20 -23 5 0 -1 -10 -13 -23 -12 -13 -25 -22 -29 -20 -6 3 -28 -28 -28 -39 0 -2 17 -4 38 -5 35 -1 35 -1 7 6 -24 5 -26 8 -12 13 23 10 47 -1 47 -20 0 -12 6 -10 26 9 21 18 25 20 17 5 -10 -19 -6 -56 6 -56 29 1 40 45 16 62 -5 4 0 8 12 8 17 0 21 -4 16 -17 -5 -12 -3 -14 8 -8 11 6 12 5 2 -5 -10 -11 -9 -16 5 -27 9 -8 12 -12 6 -9 -16 7 -44 -31 -38 -51 5 -17 5 -17 -6 0 -9 14 -9 22 0 33 8 9 9 14 2 14 -6 0 -14 -5 -17 -10 -4 -6 -11 -7 -17 -4 -6 4 -26 7 -45 6 -23 -1 -33 3 -33 13 0 18 -36 20 -43 3 -4 -9 -6 -9 -6 -1 -1 7 -10 9 -23 5 -20 -5 -21 -3 -10 10 10 13 10 17 -3 22 -9 3 -13 2 -10 -4 8 -13 -5 -35 -14 -23 -3 5 -22 16 -41 25 -23 11 -38 27 -46 50 -6 20 -18 34 -30 35 -11 2 -13 0 -6 -3 9 -4 5 -11 -14 -20 -22 -12 -29 -12 -36 -2 -7 12 -10 5 -7 -18 0 -4 -5 -10 -12 -15 -22 -13 16 -22 40 -9 13 6 21 7 21 1 0 -14 -22 -26 -42 -23 -10 2 -18 -2 -18 -7 0 -6 5 -11 12 -11 6 0 9 -2 6 -5 -10 -10 -37 7 -32 20 3 8 1 22 -5 32 -9 16 -10 16 -11 -4 0 -17 -6 -23 -22 -24 -22 -1 -22 -1 2 -9 19 -6 21 -8 6 -9 -22 -1 -16 -11 9 -15 10 -1 25 -12 34 -23 13 -18 31 -22 107 -27 51 -3 98 -8 105 -10 12 -4 111 -16 284 -32 22 -3 67 -9 100 -14 75 -12 112 -12 68 1 -18 5 -32 15 -30 22 1 6 -4 11 -11 9 -8 -1 -11 2 -8 7 3 5 -1 14 -9 21 -12 10 -15 9 -16 -6 0 -18 -1 -18 -8 0 -7 18 -8 18 -14 2 -4 -10 -5 -21 -2 -25 2 -4 -2 -8 -10 -8 -8 0 -15 5 -15 10 0 5 -7 4 -16 -3 -13 -12 -14 -10 -3 13 7 15 16 27 21 27 5 0 6 -4 3 -10 -3 -5 -1 -10 4 -10 16 0 13 12 -8 39 -15 20 -21 22 -40 11 -14 -7 -20 -17 -17 -26 3 -9 2 -12 -5 -9 -6 4 -8 13 -5 21 3 8 1 25 -4 39 -7 20 -6 23 6 18 8 -3 13 -12 10 -20 -4 -8 -1 -13 5 -11 14 5 22 85 9 93 -4 3 -6 -3 -3 -14 5 -19 -13 -38 -25 -26 -3 3 -1 9 5 13 7 5 7 15 1 32 -6 15 -12 20 -15 12 -3 -6 -10 -10 -16 -6 -7 3 -5 0 4 -8 9 -7 14 -19 11 -26 -3 -10 -8 -8 -18 5 -7 10 -14 13 -14 7 0 -6 -10 -10 -22 -9 -13 1 -40 3 -61 4 -21 0 -36 5 -32 11 3 5 12 7 21 3 8 -3 14 -2 13 3 -3 20 2 34 12 34 6 0 8 -9 4 -20 -4 -12 -2 -20 5 -20 6 0 9 4 6 9 -3 5 1 12 10 15 26 10 3 28 -30 23 -21 -3 -35 1 -44 12 -11 14 -12 13 -2 -6z"/>
<path d="M4690 455 c-7 -9 -19 -14 -27 -11 -8 3 -11 1 -8 -4 3 -6 21 -10 38 -11 30 -1 30 -1 7 -8 -33 -9 -70 -2 -64 13 2 6 -4 12 -14 12 -31 0 -15 -36 17 -36 33 -1 89 -6 281 -25 243 -25 247 -25 225 -15 -11 5 -14 9 -7 9 10 1 10 4 -2 16 -8 8 -19 15 -25 15 -14 0 -14 13 1 28 9 9 3 12 -29 12 -23 0 -44 5 -47 13 -4 8 -5 7 -4 -3 1 -8 -3 -24 -7 -34 -6 -13 -4 -21 3 -24 7 -2 12 -7 12 -12 0 -11 -43 0 -52 13 -12 18 -46 18 -51 -1 -4 -13 -5 -11 -6 6 0 12 -6 22 -12 22 -5 0 -8 4 -5 9 9 13 -12 17 -81 16 -35 -1 -63 1 -63 4 0 4 -11 8 -25 9 -14 1 -25 -3 -25 -8 0 -6 -5 -10 -11 -10 -5 0 -7 5 -4 10 10 16 -1 12 -15 -5z"/>
</g>
</svg>
